<?xml version="1.0" encoding="utf-8"?>
<!-- Generator: Adobe Illustrator 21.0.2, SVG Export Plug-In . SVG Version: 6.00 Build 0)  -->
<svg version="1.1" id="Calque_1" xmlns="http://www.w3.org/2000/svg" xmlns:xlink="http://www.w3.org/1999/xlink" x="0px" y="0px"
	 width="85px" height="85px" viewBox="0 0 85 85" style="enable-background:new 0 0 85 85;" xml:space="preserve">
<style type="text/css">
	.st0{fill:#FFFFFF;}
</style>
<title>profil</title>
<path class="st0" d="M60.3,60.4l-9.5-4.7c-0.9-0.4-1.4-1.3-1.4-2.3V50c0.2-0.3,0.5-0.6,0.7-1c1.3-1.8,2.3-3.7,3-5.7
	c1.4-0.7,2.2-2,2.3-3.5v-4c0-1-0.4-1.9-1-2.6v-5.3c0.2-2.3-0.6-4.7-2.1-6.5c-2-2.3-5.3-3.5-9.8-3.5s-7.8,1.2-9.8,3.5
	c-1.5,1.8-2.3,4.1-2.1,6.5v5.3c-0.6,0.7-1,1.6-1,2.6v4c0,1.2,0.5,2.3,1.5,3.1c0.7,2.6,1.9,5,3.5,7.2v3.3c0,1-0.5,1.9-1.4,2.3
	l-8.8,4.8c-2.9,1.6-4.7,4.6-4.7,7.8v3.2c0,4.7,14.8,5.9,22.8,5.9s22.8-1.2,22.8-5.9v-3C65.3,65,63.4,61.9,60.3,60.4z M63.3,71.4
	c0,1.3-7.3,4-20.8,4s-20.8-2.6-20.8-4v-3.2c0-2.5,1.4-4.9,3.6-6.1l8.8-4.8c1.5-0.8,2.4-2.4,2.4-4v-4L36.3,49c-1.6-2.1-2.8-4.5-3.4-7
	l-0.1-0.4l-0.3-0.2c-0.6-0.4-0.9-1-0.9-1.7v-4c0-0.6,0.2-1.1,0.7-1.5l0.3-0.3v-6.3c-0.1-1.8,0.4-3.6,1.6-4.9
	c1.6-1.9,4.4-2.8,8.3-2.8s6.7,1,8.3,2.8c1.2,1.4,1.7,3.2,1.6,4.9V34l0.3,0.3c0.4,0.4,0.7,0.9,0.7,1.5v4c0,0.9-0.6,1.6-1.4,1.9
	l-0.5,0.1l-0.2,0.5c-0.6,2-1.6,3.9-2.8,5.7c-0.3,0.4-0.5,0.7-0.8,1.1l-0.2,0.3v4.1c0,1.7,1,3.3,2.5,4.1l9.5,4.7
	c2.4,1.2,3.9,3.6,3.8,6.3V71.4z"/>
<g>
	<g>
		<path class="st0" d="M82.5,18.6c0-3.7-1.4-7.2-4.1-9.8s-6.1-4.1-9.8-4.1c-3.7,0-7.2,1.4-9.8,4.1s-4.1,6.1-4.1,9.8s1.4,7.2,4.1,9.8
			c2.6,2.6,6.1,4.1,9.8,4.1c3.7,0,7.2-1.4,9.8-4.1S82.5,22.3,82.5,18.6z M68.6,30.9c-3.3,0-6.4-1.3-8.7-3.6
			c-2.3-2.3-3.6-5.4-3.6-8.7c0-6.8,5.5-12.3,12.3-12.3c3.3,0,6.4,1.3,8.7,3.6c2.3,2.3,3.6,5.4,3.6,8.7
			C80.9,25.4,75.4,30.9,68.6,30.9z"/>
		<path class="st0" d="M77.3,18.6c0-0.4-0.4-0.8-0.8-0.8l-7.1,0l0-7.1c0-0.4-0.4-0.8-0.8-0.8c-0.4,0-0.8,0.4-0.8,0.8l0,7.1l-7.1,0
			c-0.4,0-0.8,0.4-0.8,0.8c0,0.2,0.1,0.4,0.2,0.6c0.1,0.1,0.3,0.2,0.6,0.2l7.1,0l0,7.1c0,0.2,0.1,0.4,0.2,0.6
			c0.1,0.1,0.3,0.2,0.6,0.2c0.4,0,0.8-0.4,0.8-0.8l0-7.1l7.1,0C76.9,19.4,77.3,19,77.3,18.6z"/>
	</g>
</g>
</svg>
