<svg xmlns="http://www.w3.org/2000/svg" viewBox="0 0 72.1 72.2"><defs><style>.cls-1{fill:#fff;}</style></defs><title>ajoutdocument</title><g id="Calque_1" data-name="Calque 1"><path class="cls-1" d="M82.5,18.6a13.45,13.45,0,0,0-4.1-9.8,14,14,0,0,0-9.8-4.1,13.45,13.45,0,0,0-9.8,4.1,14,14,0,0,0-4.1,9.8,13.45,13.45,0,0,0,4.1,9.8,13.85,13.85,0,0,0,9.8,4.1,13.45,13.45,0,0,0,9.8-4.1A14,14,0,0,0,82.5,18.6ZM68.6,30.9A12.3,12.3,0,1,1,80.9,18.6,12.25,12.25,0,0,1,68.6,30.9Z" transform="translate(-10.4 -4.7)"/><path class="cls-1" d="M77.3,18.6a.86.86,0,0,0-.8-.8H69.4V10.7a.8.8,0,0,0-1.6,0v7.1H60.7a.86.86,0,0,0-.8.8,1.42,1.42,0,0,0,.2.6.85.85,0,0,0,.6.2h7.1v7.1a1.42,1.42,0,0,0,.2.6.85.85,0,0,0,.6.2.86.86,0,0,0,.8-.8V19.4h7.1A.86.86,0,0,0,77.3,18.6Z" transform="translate(-10.4 -4.7)"/></g><g id="Calque_2" data-name="Calque 2"><path class="cls-1" d="M58.08,64.69a1.07,1.07,0,0,0,.4-.83V15.25a1.07,1.07,0,0,0-1.07-1.07H26.48a6.06,6.06,0,0,0-11.58,0H11.47a1.07,1.07,0,0,0-1.07,1.07V75.83a1.07,1.07,0,0,0,1.07,1.07h34a1.07,1.07,0,0,0,.84-.4ZM46.5,73.24V64.93h8.31ZM20.68,12a3.92,3.92,0,0,1,3.49,2.14h-7A3.94,3.94,0,0,1,20.68,12Zm-8.15,4.28H24.6V23.8a1.78,1.78,0,0,1-3.56,0V19.52a1.07,1.07,0,0,0-2.14,0V23.8a3.92,3.92,0,0,0,7.84,0V16.31H56.34V62.79H45.43a1.07,1.07,0,0,0-1.07,1.07V74.76H12.54Z" transform="translate(-10.4 -4.7)"/><path class="cls-1" d="M48.85,59.15a1.07,1.07,0,0,0,0-2.14H20a1.07,1.07,0,1,0,0,2.14Z" transform="translate(-10.4 -4.7)"/><path class="cls-1" d="M20,52.74H48.85a1.07,1.07,0,0,0,0-2.14H20a1.07,1.07,0,1,0,0,2.14Z" transform="translate(-10.4 -4.7)"/><path class="cls-1" d="M20,46.32H48.85a1.07,1.07,0,0,0,0-2.14H20a1.07,1.07,0,1,0,0,2.14Z" transform="translate(-10.4 -4.7)"/><path class="cls-1" d="M20,39.91H48.85a1.07,1.07,0,0,0,0-2.14H20a1.07,1.07,0,1,0,0,2.14Z" transform="translate(-10.4 -4.7)"/><path class="cls-1" d="M20,33.49H48.85a1.07,1.07,0,0,0,0-2.14H20a1.07,1.07,0,1,0,0,2.14Z" transform="translate(-10.4 -4.7)"/><path class="cls-1" d="M63.11,14.18H61.68a1.07,1.07,0,1,0,0,2.14H62V74.76H50.63a1.07,1.07,0,1,0,0,2.14H63.11a1.07,1.07,0,0,0,1.07-1.07V15.25A1.07,1.07,0,0,0,63.11,14.18Z" transform="translate(-10.4 -4.7)"/><path class="cls-1" d="M68.81,14.18H67.39a1.07,1.07,0,1,0,0,2.14h.36V74.76h-.36a1.07,1.07,0,1,0,0,2.14h1.43a1.07,1.07,0,0,0,1.07-1.07V15.25A1.07,1.07,0,0,0,68.81,14.18Z" transform="translate(-10.4 -4.7)"/></g></svg>