<?xml version="1.0" encoding="utf-8"?>
<!-- Generator: Adobe Illustrator 21.0.2, SVG Export Plug-In . SVG Version: 6.00 Build 0)  -->
<svg version="1.1" xmlns="http://www.w3.org/2000/svg" xmlns:xlink="http://www.w3.org/1999/xlink" x="0px" y="0px" width="85px"
	 height="85px" viewBox="0 0 85 85" style="enable-background:new 0 0 85 85;" xml:space="preserve">
<style type="text/css">
	.st0{fill:#FFFFFF;}
</style>
<g id="Calque_1">
	<title>profil</title>
	<g>
		<g>
			<path class="st0" d="M82.5,18.6c0-3.7-1.4-7.2-4.1-9.8s-6.1-4.1-9.8-4.1c-3.7,0-7.2,1.4-9.8,4.1s-4.1,6.1-4.1,9.8
				s1.4,7.2,4.1,9.8c2.6,2.6,6.1,4.1,9.8,4.1s7.2-1.4,9.8-4.1S82.5,22.3,82.5,18.6z M68.6,30.9c-3.3,0-6.4-1.3-8.7-3.6
				s-3.6-5.4-3.6-8.7c0-6.8,5.5-12.3,12.3-12.3c3.3,0,6.4,1.3,8.7,3.6c2.3,2.3,3.6,5.4,3.6,8.7C80.9,25.4,75.4,30.9,68.6,30.9z"/>
			<path class="st0" d="M77.3,18.6c0-0.4-0.4-0.8-0.8-0.8h-7.1v-7.1c0-0.4-0.4-0.8-0.8-0.8s-0.8,0.4-0.8,0.8v7.1h-7.1
				c-0.4,0-0.8,0.4-0.8,0.8c0,0.2,0.1,0.4,0.2,0.6c0.1,0.1,0.3,0.2,0.6,0.2h7.1v7.1c0,0.2,0.1,0.4,0.2,0.6c0.1,0.1,0.3,0.2,0.6,0.2
				c0.4,0,0.8-0.4,0.8-0.8v-7.1h7.1C76.9,19.4,77.3,19,77.3,18.6z"/>
		</g>
	</g>
</g>
<g id="Calque_2">
	<g>
		<path class="st0" d="M63,76.7c-2.9,0-6.4-0.7-10.3-2.2c-8.4-3.2-17.6-9.5-25.9-17.7c-8.2-8.2-14.5-17.4-17.7-25.9
			c-2.9-7.7-2.9-14,0-16.9c0.4-0.4,0.8-0.9,1.3-1.3C13.1,10,16,6.9,20,7c2.7,0.1,5.4,1.8,8,5.2c8,9.9,4.4,13.4,0.2,17.5l-0.7,0.7
			c-0.7,0.7-2,3.8,10,15.8c3.9,3.9,7.2,6.8,9.9,8.5c1.7,1.1,4.7,2.7,5.9,1.5l0.7-0.7c4.1-4.1,7.6-7.7,17.5,0.2
			c3.4,2.7,5,5.3,5.2,8.1c0.2,3.9-3,6.9-5.8,9.6c-0.5,0.4-0.9,0.9-1.3,1.3C68.2,76,65.9,76.7,63,76.7z M19.7,9.3
			c-2.8,0-5.3,2.7-7.6,5c-0.5,0.5-0.9,0.9-1.3,1.4c-2.2,2.1-1.9,7.8,0.6,14.4c3.1,8.1,9.2,17,17.2,25.1c8,8,16.9,14.1,25.1,17.2
			c6.6,2.5,12.2,2.7,14.4,0.6c0.4-0.4,0.9-0.9,1.4-1.3c2.4-2.3,5.1-4.9,5-7.8c-0.1-2-1.5-4.1-4.3-6.3c-8.3-6.6-10.6-4.3-14.4-0.4
			L55,57.9c-1.8,1.8-4.8,1.4-8.8-1.2c-2.8-1.8-6.3-4.8-10.3-8.8c-9.9-9.9-13.1-16-10-19.1l0.7-0.7c3.9-3.8,6.2-6.1-0.4-14.4
			c-2.2-2.8-4.3-4.2-6.3-4.3C19.8,9.3,19.8,9.3,19.7,9.3z"/>
	</g>
</g>
</svg>
