<?xml version="1.0" encoding="utf-8"?>
<!-- Generator: Adobe Illustrator 21.0.0, SVG Export Plug-In . SVG Version: 6.00 Build 0)  -->
<svg version="1.1" id="Capa_1" xmlns="http://www.w3.org/2000/svg" xmlns:xlink="http://www.w3.org/1999/xlink" x="0px" y="0px"
	 width="58px" height="58px" viewBox="0 0 58 58" style="enable-background:new 0 0 58 58;" xml:space="preserve">
<style type="text/css">
	.st0{fill:#FFFFFF;}
</style>
<g>
	<path class="st0" d="M38.5,35.7c-0.2,0-0.3,0-0.5-0.1c-0.5-0.3-0.8-0.9-0.5-1.5l11.2-23.4c0.3-0.5,0.9-0.8,1.5-0.5
		c0.5,0.3,0.8,0.9,0.5,1.5L39.5,35.1C39.3,35.5,38.9,35.7,38.5,35.7z"/>
	<path class="st0" d="M38.7,35.3c-0.2,0-0.4-0.1-0.6-0.2l-10.9-6.6c-0.5-0.3-0.7-1-0.4-1.5c0.3-0.5,1-0.7,1.5-0.4l10.9,6.6
		c0.5,0.3,0.7,1,0.4,1.5C39.5,35.1,39.1,35.3,38.7,35.3z"/>
	<path class="st0" d="M16.8,42c-0.2,0-0.5-0.1-0.7-0.3c-0.5-0.4-0.5-1.1-0.1-1.6l11-13.3c0.4-0.5,1.1-0.5,1.6-0.1
		c0.5,0.4,0.5,1.1,0.1,1.6l-11,13.3C17.5,41.9,17.2,42,16.8,42z"/>
</g>
<g>
	<path class="st0" d="M9.9,53.4c-0.6,0-1.1-0.5-1.1-1.1V5.7c0-0.6,0.5-1.1,1.1-1.1S11,5.1,11,5.7v46.6C11,52.9,10.5,53.4,9.9,53.4z"
		/>
	<path class="st0" d="M52.3,49.2H5.7c-0.6,0-1.1-0.5-1.1-1.1S5.1,47,5.7,47h46.6c0.6,0,1.1,0.5,1.1,1.1
		C53.4,48.7,52.9,49.2,52.3,49.2z"/>
</g>
<g>
	<circle class="st0" cx="27.8" cy="27.6" r="2.8"/>
	<circle class="st0" cx="17" cy="41" r="2.8"/>
	<circle class="st0" cx="38.7" cy="34.2" r="2.8"/>
	<circle class="st0" cx="49.6" cy="11.7" r="2.8"/>
</g>
</svg>
