<svg id="Capa_1" data-name="Capa 1" xmlns="http://www.w3.org/2000/svg" viewBox="0 0 48.8 48.8"><defs><style>.cls-1{fill:#4ab5dd;}</style></defs><title>bilansbleu</title><path class="cls-1" d="M38.5,35.7a.9.9,0,0,1-.5-.1,1.14,1.14,0,0,1-.5-1.5L48.7,10.7a1.12,1.12,0,0,1,2,1L39.5,35.1A1.1,1.1,0,0,1,38.5,35.7Z" transform="translate(-4.6 -4.6)"/><path class="cls-1" d="M38.7,35.3a1.42,1.42,0,0,1-.6-.2L27.2,28.5a1.1,1.1,0,1,1,1.1-1.9l10.9,6.6a1.13,1.13,0,0,1,.4,1.5A.87.87,0,0,1,38.7,35.3Z" transform="translate(-4.6 -4.6)"/><path class="cls-1" d="M16.8,42a1.08,1.08,0,0,1-.7-.3,1.12,1.12,0,0,1-.1-1.6L27,26.8a1.13,1.13,0,0,1,1.7,1.5l-11,13.3A1,1,0,0,1,16.8,42Z" transform="translate(-4.6 -4.6)"/><path class="cls-1" d="M9.9,53.4a1.11,1.11,0,0,1-1.1-1.1V5.7a1.1,1.1,0,0,1,2.2,0V52.3A1.11,1.11,0,0,1,9.9,53.4Z" transform="translate(-4.6 -4.6)"/><path class="cls-1" d="M52.3,49.2H5.7a1.1,1.1,0,0,1,0-2.2H52.3a1.1,1.1,0,0,1,0,2.2Z" transform="translate(-4.6 -4.6)"/><circle class="cls-1" cx="23.2" cy="23" r="2.8"/><circle class="cls-1" cx="12.4" cy="36.4" r="2.8"/><circle class="cls-1" cx="34.1" cy="29.6" r="2.8"/><circle class="cls-1" cx="45" cy="7.1" r="2.8"/></svg>