<svg id="Capa_1" data-name="Capa 1" xmlns="http://www.w3.org/2000/svg" viewBox="0 0 48.8 48.8"><defs><style>.cls-1{fill:#db6b93;}</style></defs><title>bilansrose</title><path class="cls-1" d="M33.9,31.1a.9.9,0,0,1-.5-.1,1.14,1.14,0,0,1-.5-1.5L44.1,6.1a1.12,1.12,0,0,1,2,1L34.9,30.5A1.1,1.1,0,0,1,33.9,31.1Z" transform="translate(0 0)"/><path class="cls-1" d="M34.1,30.7a1.42,1.42,0,0,1-.6-.2L22.6,23.9a1.1,1.1,0,1,1,1-2l.12.07,10.9,6.6a1.13,1.13,0,0,1,.4,1.5A.87.87,0,0,1,34.1,30.7Z" transform="translate(0 0)"/><path class="cls-1" d="M12.2,37.4a1.08,1.08,0,0,1-.7-.3,1.12,1.12,0,0,1-.12-1.58l0,0,11-13.3a1.13,1.13,0,0,1,1.7,1.5h0L13.1,37A1,1,0,0,1,12.2,37.4Z" transform="translate(0 0)"/><path class="cls-1" d="M5.3,48.8a1.11,1.11,0,0,1-1.1-1.1V1.1a1.1,1.1,0,0,1,2.2,0V47.7A1.11,1.11,0,0,1,5.3,48.8Z" transform="translate(0 0)"/><path class="cls-1" d="M47.7,44.6H1.1a1.1,1.1,0,1,1,0-2.2H47.7a1.1,1.1,0,1,1,0,2.2Z" transform="translate(0 0)"/><circle class="cls-1" cx="23.2" cy="23" r="2.8"/><circle class="cls-1" cx="12.4" cy="36.4" r="2.8"/><circle class="cls-1" cx="34.1" cy="29.6" r="2.8"/><circle class="cls-1" cx="45" cy="7.1" r="2.8"/></svg>