<svg id="Capa_1" data-name="Capa 1" xmlns="http://www.w3.org/2000/svg" viewBox="0 0 44 43.24"><defs><style>.cls-1{fill:#fff;}</style></defs><title>calendrier</title><path class="cls-1" d="M33.54,9a3.8,3.8,0,0,0-3.72-3,.76.76,0,1,0,0,1.52,2.28,2.28,0,0,1,0,4.55.76.76,0,1,0,0,1.52,3.8,3.8,0,0,0,3.72-3h9.94v6.83h-41V10.55h12.9a.76.76,0,0,0,0-1.52H14a2.27,2.27,0,1,1,2.14,3,.76.76,0,0,0,0,1.52A3.79,3.79,0,1,0,12.46,9H1V49.24H45V9Zm9.94,38.69h-41V18.9h41Z" transform="translate(-1 -6)"/><path class="cls-1" d="M20.72,7.52a2.28,2.28,0,0,1,0,4.55.76.76,0,1,0,0,1.52,3.79,3.79,0,0,0,0-7.59.76.76,0,1,0,0,1.52Z" transform="translate(-1 -6)"/><path class="cls-1" d="M25.28,7.52a2.28,2.28,0,0,1,0,4.55.76.76,0,0,0,0,1.52,3.79,3.79,0,0,0,0-7.59.76.76,0,1,0,0,1.52Z" transform="translate(-1 -6)"/><circle class="cls-1" cx="16.69" cy="18.21" r="0.76"/><circle class="cls-1" cx="22" cy="18.21" r="0.76"/><circle class="cls-1" cx="27.31" cy="18.21" r="0.76"/><circle class="cls-1" cx="32.62" cy="18.21" r="0.76"/><circle class="cls-1" cx="37.93" cy="18.21" r="0.76"/><circle class="cls-1" cx="6.07" cy="24.28" r="0.76"/><circle class="cls-1" cx="11.38" cy="24.28" r="0.76"/><circle class="cls-1" cx="16.69" cy="24.28" r="0.76"/><circle class="cls-1" cx="22" cy="24.28" r="0.76"/><circle class="cls-1" cx="27.31" cy="24.28" r="0.76"/><circle class="cls-1" cx="32.62" cy="24.28" r="0.76"/><circle class="cls-1" cx="37.93" cy="24.28" r="0.76"/><circle class="cls-1" cx="6.07" cy="29.59" r="0.76"/><circle class="cls-1" cx="11.38" cy="29.59" r="0.76"/><circle class="cls-1" cx="16.69" cy="29.59" r="0.76"/><circle class="cls-1" cx="22" cy="29.59" r="0.76"/><circle class="cls-1" cx="27.31" cy="29.59" r="0.76"/><circle class="cls-1" cx="32.62" cy="29.59" r="0.76"/><circle class="cls-1" cx="37.93" cy="29.59" r="0.76"/><circle class="cls-1" cx="6.07" cy="35.66" r="0.76"/><circle class="cls-1" cx="11.38" cy="35.66" r="0.76"/><circle class="cls-1" cx="16.69" cy="35.66" r="0.76"/><circle class="cls-1" cx="22" cy="35.66" r="0.76"/><circle class="cls-1" cx="27.31" cy="35.66" r="0.76"/></svg>