<svg id="Capa_1" data-name="Capa 1" xmlns="http://www.w3.org/2000/svg" viewBox="0 0 44 43.27"><defs><style>.cls-1{fill:#e77366;}</style></defs><title>calendrierorange</title><path class="cls-1" d="M32.54,3a3.8,3.8,0,0,0-3.72-3,.76.76,0,1,0,0,1.52h0a2.28,2.28,0,0,1,0,4.55.76.76,0,1,0,0,1.52h0a3.8,3.8,0,0,0,3.72-3h9.94v6.83h-41V4.58h12.9a.76.76,0,0,0,0-1.52H13a2.27,2.27,0,1,1,2.14,3,.76.76,0,1,0,0,1.52h0A3.79,3.79,0,1,0,11.46,3H0V43.27H44V3Zm9.94,38.69h-41V12.93h41Z" transform="translate(0 0)"/><path class="cls-1" d="M19.72,1.55a2.28,2.28,0,0,1,0,4.55.76.76,0,1,0,0,1.52h0A3.8,3.8,0,1,0,20.11,0h-.39a.76.76,0,1,0,0,1.52Z" transform="translate(0 0)"/><path class="cls-1" d="M24.28,1.55a2.28,2.28,0,0,1,0,4.55.76.76,0,1,0,0,1.52h0a3.8,3.8,0,0,0,0-7.59.76.76,0,1,0,0,1.52Z" transform="translate(0 0)"/><circle class="cls-1" cx="16.69" cy="18.24" r="0.76"/><circle class="cls-1" cx="22" cy="18.24" r="0.76"/><circle class="cls-1" cx="27.31" cy="18.24" r="0.76"/><circle class="cls-1" cx="32.62" cy="18.24" r="0.76"/><circle class="cls-1" cx="37.93" cy="18.24" r="0.76"/><circle class="cls-1" cx="6.07" cy="24.31" r="0.76"/><circle class="cls-1" cx="11.38" cy="24.31" r="0.76"/><circle class="cls-1" cx="16.69" cy="24.31" r="0.76"/><circle class="cls-1" cx="22" cy="24.31" r="0.76"/><circle class="cls-1" cx="27.31" cy="24.31" r="0.76"/><circle class="cls-1" cx="32.62" cy="24.31" r="0.76"/><circle class="cls-1" cx="37.93" cy="24.31" r="0.76"/><circle class="cls-1" cx="6.07" cy="29.62" r="0.76"/><circle class="cls-1" cx="11.38" cy="29.62" r="0.76"/><circle class="cls-1" cx="16.69" cy="29.62" r="0.76"/><circle class="cls-1" cx="22" cy="29.62" r="0.76"/><circle class="cls-1" cx="27.31" cy="29.62" r="0.76"/><circle class="cls-1" cx="32.62" cy="29.62" r="0.76"/><circle class="cls-1" cx="37.93" cy="29.62" r="0.76"/><circle class="cls-1" cx="6.07" cy="35.69" r="0.76"/><circle class="cls-1" cx="11.38" cy="35.69" r="0.76"/><circle class="cls-1" cx="16.69" cy="35.69" r="0.76"/><circle class="cls-1" cx="22" cy="35.69" r="0.76"/><circle class="cls-1" cx="27.31" cy="35.69" r="0.76"/></svg>