<svg id="Capa_1" data-name="Capa 1" xmlns="http://www.w3.org/2000/svg" viewBox="0 0 54 58"><defs><style>.cls-1{fill:#e77366;}</style></defs><title>carnetorange</title><path class="cls-1" d="M1,43a.94.94,0,0,0,1-1,3,3,0,0,1,6,0,.94.94,0,0,0,.88,1H9a.94.94,0,0,0,1-1A5,5,0,0,0,0,42a.94.94,0,0,0,.88,1Z" transform="translate(0)"/><path class="cls-1" d="M1,37a.94.94,0,0,0,1-1,3,3,0,0,1,6,0,.94.94,0,0,0,.88,1H9a.94.94,0,0,0,1-1A5,5,0,0,0,0,36a.94.94,0,0,0,.88,1Z" transform="translate(0)"/><path class="cls-1" d="M1,31a.94.94,0,0,0,1-1,3,3,0,0,1,6,0,.94.94,0,0,0,.88,1H9a.94.94,0,0,0,1-1A5,5,0,0,0,0,30a.94.94,0,0,0,.88,1Z" transform="translate(0)"/><path class="cls-1" d="M1,25a.94.94,0,0,0,1-1,3,3,0,0,1,6,0,.94.94,0,0,0,.88,1H9a.94.94,0,0,0,1-1A5,5,0,0,0,0,24a.94.94,0,0,0,.88,1Z" transform="translate(0)"/><path class="cls-1" d="M2,18a3,3,0,0,1,6,0,.94.94,0,0,0,.88,1H9a.94.94,0,0,0,1-1A5,5,0,0,0,0,18a.94.94,0,0,0,.88,1H1a.94.94,0,0,0,1-1Z" transform="translate(0)"/><path class="cls-1" d="M50,0H4V7.1A5,5,0,0,0,0,12a.94.94,0,0,0,.88,1H1a.94.94,0,0,0,1-1,3,3,0,0,1,6,0,.94.94,0,0,0,.88,1H9a.94.94,0,0,0,1-1A5,5,0,0,0,6,7.1V2h9V56H6V49a.94.94,0,0,0-.88-1H5a.94.94,0,0,0-1,1v1.8A2.91,2.91,0,0,1,2,48a3,3,0,0,1,6,0,.94.94,0,0,0,.88,1H9a.94.94,0,0,0,1-1,5,5,0,1,0-6,4.9V58H50a4,4,0,0,0,4-4V4A4,4,0,0,0,50,0ZM17,56V2H41V56Zm26,0V2h3V56Zm9-2a2,2,0,0,1-2,2H48V2h2a2,2,0,0,1,2,2Z" transform="translate(0)"/></svg>