<svg id="Capa_1" data-name="Capa 1" xmlns="http://www.w3.org/2000/svg" viewBox="0 0 54 58"><defs><style>.cls-1{fill:#4ab5dd;}</style></defs><title>carnetbleu</title><path class="cls-1" d="M3,43a.94.94,0,0,0,1-1,3,3,0,0,1,3-3,3,3,0,0,1,3,3,.94.94,0,0,0,1,1,.94.94,0,0,0,1-1,5,5,0,0,0-5-5,5,5,0,0,0-5,5A.94.94,0,0,0,3,43Z" transform="translate(-2)"/><path class="cls-1" d="M3,37a.94.94,0,0,0,1-1,3,3,0,0,1,3-3,3,3,0,0,1,3,3,.94.94,0,0,0,1,1,.94.94,0,0,0,1-1,5,5,0,0,0-5-5,5,5,0,0,0-5,5A.94.94,0,0,0,3,37Z" transform="translate(-2)"/><path class="cls-1" d="M3,31a.94.94,0,0,0,1-1,3,3,0,0,1,3-3,3,3,0,0,1,3,3,.94.94,0,0,0,1,1,.94.94,0,0,0,1-1,5,5,0,0,0-5-5,5,5,0,0,0-5,5A.94.94,0,0,0,3,31Z" transform="translate(-2)"/><path class="cls-1" d="M3,25a.94.94,0,0,0,1-1,3,3,0,0,1,3-3,3,3,0,0,1,3,3,.94.94,0,0,0,1,1,.94.94,0,0,0,1-1,5,5,0,0,0-5-5,5,5,0,0,0-5,5A.94.94,0,0,0,3,25Z" transform="translate(-2)"/><path class="cls-1" d="M4,18a3,3,0,0,1,3-3,3,3,0,0,1,3,3,.94.94,0,0,0,1,1,.94.94,0,0,0,1-1,5,5,0,0,0-5-5,5,5,0,0,0-5,5,.94.94,0,0,0,1,1A.94.94,0,0,0,4,18Z" transform="translate(-2)"/><path class="cls-1" d="M52,0H6V7.1A5,5,0,0,0,2,12a.94.94,0,0,0,1,1,.94.94,0,0,0,1-1A3,3,0,0,1,7,9a3,3,0,0,1,3,3,.94.94,0,0,0,1,1,.94.94,0,0,0,1-1A5,5,0,0,0,8,7.1V2h9V56H8V49a.94.94,0,0,0-1-1,.94.94,0,0,0-1,1v1.8A2.91,2.91,0,0,1,4,48a3,3,0,0,1,3-3,3,3,0,0,1,3,3,.94.94,0,0,0,1,1,.94.94,0,0,0,1-1,5,5,0,0,0-5-5,5,5,0,0,0-5,5,5,5,0,0,0,4,4.9V58H52a4,4,0,0,0,4-4V4A4,4,0,0,0,52,0ZM19,56V2H43V56Zm26,0V2h3V56Zm9-2a2,2,0,0,1-2,2H50V2h2a2,2,0,0,1,2,2Z" transform="translate(-2)"/></svg>