<?xml version="1.0" encoding="utf-8"?>
<!-- Generator: Adobe Illustrator 21.0.0, SVG Export Plug-In . SVG Version: 6.00 Build 0)  -->
<svg version="1.1" id="Capa_1" xmlns="http://www.w3.org/2000/svg" xmlns:xlink="http://www.w3.org/1999/xlink" x="0px" y="0px"
	 width="58px" height="58px" viewBox="0 0 58 58" style="enable-background:new 0 0 58 58;" xml:space="preserve">
<style type="text/css">
	.st0{fill:#FFFFFF;}
</style>
<g>
	<path class="st0" d="M3,43c0.6,0,1-0.4,1-1c0-1.7,1.3-3,3-3s3,1.3,3,3c0,0.6,0.4,1,1,1s1-0.4,1-1c0-2.8-2.2-5-5-5s-5,2.2-5,5
		C2,42.6,2.4,43,3,43z"/>
	<path class="st0" d="M3,37c0.6,0,1-0.4,1-1c0-1.7,1.3-3,3-3s3,1.3,3,3c0,0.6,0.4,1,1,1s1-0.4,1-1c0-2.8-2.2-5-5-5s-5,2.2-5,5
		C2,36.6,2.4,37,3,37z"/>
	<path class="st0" d="M3,31c0.6,0,1-0.4,1-1c0-1.7,1.3-3,3-3s3,1.3,3,3c0,0.6,0.4,1,1,1s1-0.4,1-1c0-2.8-2.2-5-5-5s-5,2.2-5,5
		C2,30.6,2.4,31,3,31z"/>
	<path class="st0" d="M3,25c0.6,0,1-0.4,1-1c0-1.7,1.3-3,3-3s3,1.3,3,3c0,0.6,0.4,1,1,1s1-0.4,1-1c0-2.8-2.2-5-5-5s-5,2.2-5,5
		C2,24.6,2.4,25,3,25z"/>
	<path class="st0" d="M4,18c0-1.7,1.3-3,3-3s3,1.3,3,3c0,0.6,0.4,1,1,1s1-0.4,1-1c0-2.8-2.2-5-5-5s-5,2.2-5,5c0,0.6,0.4,1,1,1
		S4,18.6,4,18z"/>
	<path class="st0" d="M52,0h-2h-7H19v0H6v7.1C3.7,7.6,2,9.6,2,12c0,0.6,0.4,1,1,1s1-0.4,1-1c0-1.7,1.3-3,3-3s3,1.3,3,3
		c0,0.6,0.4,1,1,1s1-0.4,1-1c0-2.4-1.7-4.4-4-4.9V2h9v54H8v-4v-3c0-0.6-0.4-1-1-1s-1,0.4-1,1v1.8c-1.2-0.4-2-1.5-2-2.8
		c0-1.7,1.3-3,3-3s3,1.3,3,3c0,0.6,0.4,1,1,1s1-0.4,1-1c0-2.8-2.2-5-5-5s-5,2.2-5,5c0,2.4,1.7,4.4,4,4.9V58h11h2h24h7h2
		c2.2,0,4-1.8,4-4V4C56,1.8,54.2,0,52,0z M19,56V2h24v54H19z M45,56V2h3v54H45z M54,54c0,1.1-0.9,2-2,2h-2V2h2c1.1,0,2,0.9,2,2V54z"
		/>
</g>
</svg>
