<?xml version="1.0" encoding="utf-8"?>
<!-- Generator: Adobe Illustrator 21.0.0, SVG Export Plug-In . SVG Version: 6.00 Build 0)  -->
<svg version="1.1" id="Capa_1" xmlns="http://www.w3.org/2000/svg" xmlns:xlink="http://www.w3.org/1999/xlink" x="0px" y="0px"
	 width="46px" height="60px" viewBox="0 0 46 60" style="enable-background:new 0 0 46 60;" xml:space="preserve">
<style type="text/css">
	.st0{fill:#FFFFFF;}
</style>
<g>
	<g>
		<path class="st0" d="M35,18c-3.2-3.2-7.5-5-12-5s-8.8,1.8-12,5s-5,7.5-5,12s1.8,8.8,5,12c3.2,3.2,7.5,5,12,5s8.8-1.8,12-5
			c3.2-3.2,5-7.5,5-12S38.2,21.2,35,18z M33.6,40.6C30.8,43.5,27,45,23,45s-7.8-1.6-10.6-4.4c-5.9-5.9-5.9-15.4,0-21.3
			C15.2,16.5,19,15,23,15s7.8,1.6,10.6,4.4C39.5,25.2,39.5,34.8,33.6,40.6z"/>
		<path class="st0" d="M30.5,22.5c-0.4-0.4-1-0.4-1.4,0L23,28.6l-6.1-6.1c-0.4-0.4-1-0.4-1.4,0s-0.4,1,0,1.4l6.1,6.1l-6.1,6.1
			c-0.4,0.4-0.4,1,0,1.4c0.2,0.2,0.4,0.3,0.7,0.3s0.5-0.1,0.7-0.3l6.1-6.1l6.1,6.1c0.2,0.2,0.4,0.3,0.7,0.3c0.2,0,0.5-0.1,0.7-0.3
			c0.4-0.4,0.4-1,0-1.4L24.4,30l6.1-6.1C30.9,23.5,30.9,22.9,30.5,22.5z"/>
	</g>
</g>
</svg>
