<svg id="Calque_1" data-name="Calque 1" xmlns="http://www.w3.org/2000/svg" viewBox="0 0 80.3 80.3"><defs><style>.cls-1{fill:#fff;}</style></defs><title>croixfond</title><path class="cls-1" d="M68.46,11.84A40.47,40.47,0,0,0,40.15,0,38.85,38.85,0,0,0,11.8,11.84C4.33,19.64,0,29.46,0,40.15A38.85,38.85,0,0,0,11.8,68.46,40,40,0,0,0,40.15,80.3,38.85,38.85,0,0,0,68.46,68.46C76,60.66,80.3,50.84,80.3,40.15A38.85,38.85,0,0,0,68.46,11.84ZM57,41.86H41.86V57a1.84,1.84,0,0,1-1.71,1.71,1.81,1.81,0,0,1-1.28-.43,3,3,0,0,1-.43-1.25V41.86H23.25A1.81,1.81,0,0,1,22,41.43a3,3,0,0,1-.43-1.28,1.84,1.84,0,0,1,1.71-1.71H38.44V23.3a1.71,1.71,0,1,1,3.42,0V38.44H57.09a1.71,1.71,0,1,1,0,3.42Z" transform="translate(0 0)"/></svg>