<svg id="Calque_1" data-name="Calque 1" xmlns="http://www.w3.org/2000/svg" viewBox="0 0 80.3 80.3"><defs><style>.cls-1{fill:#e77366;}.cls-2{fill:#fff;}</style></defs><title>croixfondorange</title><path class="cls-1" d="M80.3,40.15A38.85,38.85,0,0,0,68.46,11.84,40.47,40.47,0,0,0,40.15,0,38.85,38.85,0,0,0,11.8,11.84C4.33,19.64,0,29.46,0,40.15A38.85,38.85,0,0,0,11.8,68.46,40,40,0,0,0,40.15,80.3,38.85,38.85,0,0,0,68.46,68.46C76,60.66,80.3,50.84,80.3,40.15Z" transform="translate(0 0)"/><path class="cls-2" d="M58.8,40.15a1.84,1.84,0,0,0-1.71-1.71H41.86V23.3a1.71,1.71,0,0,0-3.42,0V38.44H23.25a1.84,1.84,0,0,0-1.71,1.71A3,3,0,0,0,22,41.43a1.81,1.81,0,0,0,1.28.43H38.44V57a3,3,0,0,0,.43,1.25,1.81,1.81,0,0,0,1.28.43A1.84,1.84,0,0,0,41.86,57V41.86H57A1.84,1.84,0,0,0,58.8,40.15Z" transform="translate(0 0)"/></svg>