<svg id="Capa_1" data-name="Capa 1" xmlns="http://www.w3.org/2000/svg" viewBox="0 0 217.35 217.38"><defs><style>.cls-1{fill:#e42626;}</style></defs><title>croixrouge</title><path class="cls-1" d="M342.3,132.9a13.46,13.46,0,0,0-19.1,0l-85.6,85.6L152,132.9A13.51,13.51,0,0,0,132.9,152l85.6,85.6-85.6,85.6a13.55,13.55,0,0,0,9.5,23.1,13.17,13.17,0,0,0,9.5-4l85.6-85.6,85.6,85.6a13.59,13.59,0,0,0,9.5,4,13,13,0,0,0,9.5-4,13.46,13.46,0,0,0,0-19.1l-85.4-85.6L342.3,152A13.46,13.46,0,0,0,342.3,132.9Z" transform="translate(-128.92 -128.92)"/></svg>