<svg id="Calque_1" data-name="Calque 1" xmlns="http://www.w3.org/2000/svg" viewBox="0 0 80.3 80.3"><defs><style>.cls-1{fill:#4ab5dd;}.cls-2{fill:#fff;}</style></defs><title>croixfondbleu</title><path class="cls-1" d="M82.5,42.85A38.85,38.85,0,0,0,70.66,14.54C62.86,7,53,2.7,42.35,2.7A38.85,38.85,0,0,0,14,14.54C6.53,22.34,2.2,32.16,2.2,42.85A38.85,38.85,0,0,0,14,71.16,40,40,0,0,0,42.35,83,38.85,38.85,0,0,0,70.66,71.16C78.17,63.36,82.5,53.54,82.5,42.85Z" transform="translate(-2.2 -2.7)"/><path class="cls-2" d="M61,42.85a1.84,1.84,0,0,0-1.71-1.71H44.06V26a1.71,1.71,0,0,0-3.42,0V41.14H25.45a1.84,1.84,0,0,0-1.71,1.71,3,3,0,0,0,.43,1.28,1.81,1.81,0,0,0,1.28.43H40.64V59.75A3,3,0,0,0,41.07,61a1.81,1.81,0,0,0,1.28.43,1.84,1.84,0,0,0,1.71-1.71V44.56H59.25A1.84,1.84,0,0,0,61,42.85Z" transform="translate(-2.2 -2.7)"/></svg>