<svg id="Capa_1" data-name="Capa 1" xmlns="http://www.w3.org/2000/svg" viewBox="0 0 417.24 470.01"><defs><style>.cls-1{fill:#e77366;}</style></defs><title>documentorange</title><path class="cls-1" d="M334.46,384.34a7.48,7.48,0,0,0,2.8-5.84V37.5a7.5,7.5,0,0,0-7.5-7.5h-217a42.5,42.5,0,0,0-81.24,0h-24A7.5,7.5,0,0,0,0,37.5H0v425a7.5,7.5,0,0,0,7.5,7.5H245.69a7.52,7.52,0,0,0,5.9-2.79Zm-81.2,60V386h58.37ZM72.15,15A27.52,27.52,0,0,1,96.63,30h-49A27.66,27.66,0,0,1,72.15,15ZM15,45H99.63V97.5a12.5,12.5,0,0,1-25,0v-30a7.5,7.5,0,0,0-15,0v30a27.5,27.5,0,0,0,55,0V45H322.26V371h-76.5a7.5,7.5,0,0,0-7.5,7.5V455H15Z" transform="translate(-0.02 0.01)"/><path class="cls-1" d="M269.76,345.5a7.5,7.5,0,0,0,0-15H67.5a7.5,7.5,0,1,0,0,15Z" transform="translate(-0.02 0.01)"/><path class="cls-1" d="M67.5,300.5H269.76a7.5,7.5,0,0,0,0-15H67.5a7.5,7.5,0,1,0,0,15Z" transform="translate(-0.02 0.01)"/><path class="cls-1" d="M67.5,255.5H269.76a7.5,7.5,0,0,0,0-15H67.5a7.5,7.5,0,1,0,0,15Z" transform="translate(-0.02 0.01)"/><path class="cls-1" d="M67.5,210.5H269.76a7.5,7.5,0,0,0,0-15H67.5a7.5,7.5,0,1,0,0,15Z" transform="translate(-0.02 0.01)"/><path class="cls-1" d="M67.5,165.5H269.76a7.5,7.5,0,0,0,0-15H67.5a7.5,7.5,0,1,0,0,15Z" transform="translate(-0.02 0.01)"/><path class="cls-1" d="M369.76,30h-10a7.5,7.5,0,0,0,0,15h2.5V455H282.18a7.5,7.5,0,0,0,0,15h87.57a7.5,7.5,0,0,0,7.5-7.5h0V37.5A7.5,7.5,0,0,0,369.76,30Z" transform="translate(-0.02 0.01)"/><path class="cls-1" d="M409.76,30h-10a7.5,7.5,0,0,0,0,15h2.5V455h-2.5a7.5,7.5,0,0,0,0,15h10a7.5,7.5,0,0,0,7.5-7.5h0V37.5a7.5,7.5,0,0,0-7.5-7.5Z" transform="translate(-0.02 0.01)"/></svg>