<svg id="Capa_1" data-name="Capa 1" xmlns="http://www.w3.org/2000/svg" viewBox="0 0 417.25 470"><defs><style>.cls-1{fill:#4ab5dd;}</style></defs><title>documentbleu</title><path class="cls-1" d="M360.83,384.34a7.48,7.48,0,0,0,2.8-5.84V37.5a7.5,7.5,0,0,0-7.5-7.5h-217a42.5,42.5,0,0,0-81.24,0h-24a7.5,7.5,0,0,0-7.5,7.5v425a7.5,7.5,0,0,0,7.5,7.5H272.06a7.52,7.52,0,0,0,5.9-2.79Zm-81.2,60V386H338ZM98.52,15A27.52,27.52,0,0,1,123,30H74A27.66,27.66,0,0,1,98.52,15ZM41.37,45H126V97.5a12.5,12.5,0,0,1-25,0v-30a7.5,7.5,0,0,0-15,0v30a27.5,27.5,0,0,0,55,0V45H348.63V371h-76.5a7.5,7.5,0,0,0-7.5,7.5V455H41.37Z" transform="translate(-26.37)"/><path class="cls-1" d="M296.13,345.5a7.5,7.5,0,0,0,0-15H93.87a7.5,7.5,0,0,0,0,15Z" transform="translate(-26.37)"/><path class="cls-1" d="M93.87,300.5H296.13a7.5,7.5,0,0,0,0-15H93.87a7.5,7.5,0,0,0,0,15Z" transform="translate(-26.37)"/><path class="cls-1" d="M93.87,255.5H296.13a7.5,7.5,0,0,0,0-15H93.87a7.5,7.5,0,0,0,0,15Z" transform="translate(-26.37)"/><path class="cls-1" d="M93.87,210.5H296.13a7.5,7.5,0,0,0,0-15H93.87a7.5,7.5,0,0,0,0,15Z" transform="translate(-26.37)"/><path class="cls-1" d="M93.87,165.5H296.13a7.5,7.5,0,0,0,0-15H93.87a7.5,7.5,0,0,0,0,15Z" transform="translate(-26.37)"/><path class="cls-1" d="M396.13,30h-10a7.5,7.5,0,0,0,0,15h2.5V455H308.55a7.5,7.5,0,0,0,0,15h87.57a7.5,7.5,0,0,0,7.5-7.5V37.5A7.5,7.5,0,0,0,396.13,30Z" transform="translate(-26.37)"/><path class="cls-1" d="M436.13,30h-10a7.5,7.5,0,0,0,0,15h2.5V455h-2.5a7.5,7.5,0,1,0,0,15h10a7.5,7.5,0,0,0,7.5-7.5V37.5A7.5,7.5,0,0,0,436.13,30Z" transform="translate(-26.37)"/></svg>