<?xml version="1.0" encoding="utf-8"?>
<!-- Generator: Adobe Illustrator 21.0.2, SVG Export Plug-In . SVG Version: 6.00 Build 0)  -->
<svg version="1.1" id="Capa_1" xmlns="http://www.w3.org/2000/svg" xmlns:xlink="http://www.w3.org/1999/xlink" x="0px" y="0px"
	 width="417.2px" height="470px" viewBox="0 0 417.2 470" style="enable-background:new 0 0 417.2 470;" xml:space="preserve">
<style type="text/css">
	.st0{fill:#A161B1;}
</style>
<title>documentbleu</title>
<path class="st0" d="M334.5,384.3c1.8-1.4,2.8-3.6,2.8-5.8v-341c0-4.1-3.4-7.5-7.5-7.5l0,0h-217C105.9,7.6,82.1-5,59.6,1.9
	C46.2,6,35.7,16.5,31.5,30h-24C3.4,30,0,33.4,0,37.5l0,0v425c0,4.1,3.4,7.5,7.5,7.5l0,0h238.2c2.3,0,4.5-1,5.9-2.8L334.5,384.3z
	 M253.3,444.3V386h58.4L253.3,444.3z M72.1,15c10.3,0,19.8,5.8,24.5,15h-49C52.4,20.8,61.8,15,72.1,15z M15,45h84.6v52.5
	c0,6.9-5.6,12.5-12.5,12.5s-12.5-5.6-12.5-12.5v-30c0-4.1-3.4-7.5-7.5-7.5s-7.5,3.4-7.5,7.5v30c0,15.2,12.3,27.5,27.5,27.5
	s27.5-12.3,27.5-27.5V45h207.6v326h-76.5c-4.1,0-7.5,3.4-7.5,7.5V455H15V45z"/>
<path class="st0" d="M269.8,345.5c4.1,0,7.5-3.4,7.5-7.5s-3.4-7.5-7.5-7.5H67.5c-4.1,0-7.5,3.4-7.5,7.5s3.4,7.5,7.5,7.5H269.8z"/>
<path class="st0" d="M67.5,300.5h202.3c4.1,0,7.5-3.4,7.5-7.5s-3.4-7.5-7.5-7.5H67.5c-4.1,0-7.5,3.4-7.5,7.5S63.4,300.5,67.5,300.5z
	"/>
<path class="st0" d="M67.5,255.5h202.3c4.1,0,7.5-3.4,7.5-7.5s-3.4-7.5-7.5-7.5H67.5c-4.1,0-7.5,3.4-7.5,7.5S63.4,255.5,67.5,255.5z
	"/>
<path class="st0" d="M67.5,210.5h202.3c4.1,0,7.5-3.4,7.5-7.5s-3.4-7.5-7.5-7.5H67.5c-4.1,0-7.5,3.4-7.5,7.5S63.4,210.5,67.5,210.5z
	"/>
<path class="st0" d="M67.5,165.5h202.3c4.1,0,7.5-3.4,7.5-7.5s-3.4-7.5-7.5-7.5H67.5c-4.1,0-7.5,3.4-7.5,7.5S63.4,165.5,67.5,165.5z
	"/>
<path class="st0" d="M369.8,30h-10c-4.1,0-7.5,3.4-7.5,7.5s3.4,7.5,7.5,7.5h2.5v410h-80.1c-4.1,0-7.5,3.4-7.5,7.5s3.4,7.5,7.5,7.5
	h87.6c4.1,0,7.5-3.4,7.5-7.5l0,0v-425C377.2,33.4,373.9,30,369.8,30z"/>
<path class="st0" d="M409.8,30h-10c-4.1,0-7.5,3.4-7.5,7.5s3.4,7.5,7.5,7.5h2.5v410h-2.5c-4.1,0-7.5,3.4-7.5,7.5s3.4,7.5,7.5,7.5h10
	c4.1,0,7.5-3.4,7.5-7.5l0,0v-425C417.3,33.4,413.9,30,409.8,30L409.8,30z"/>
</svg>
