<?xml version="1.0" encoding="utf-8"?>
<!-- Generator: Adobe Illustrator 21.0.2, SVG Export Plug-In . SVG Version: 6.00 Build 0)  -->
<svg version="1.1" id="Capa_1" xmlns="http://www.w3.org/2000/svg" xmlns:xlink="http://www.w3.org/1999/xlink" x="0px" y="0px"
	 width="275.8px" height="275.8px" viewBox="0 0 275.8 275.8" style="enable-background:new 0 0 275.8 275.8;" xml:space="preserve"
	>
<style type="text/css">
	.st0{fill:#FFFFFF;}
</style>
<g>
	<path class="st0" d="M191.3,20.9l-95.2,95.2c-0.8,0.8-1.3,1.7-1.6,2.7l-8.2,31.5c-0.5,2.1,0.1,4.2,1.6,5.8c1.1,1.1,2.7,1.8,4.2,1.8
		c0.5,0,1-0.1,1.5-0.2l31.5-8.2c1-0.3,2-0.8,2.7-1.6l95.2-95.2c0,0,0,0,0,0s0,0,0,0l19.2-19.2c2.3-2.3,2.3-6.1,0-8.5L219,1.8
		c-1.1-1.1-2.7-1.8-4.2-1.8c-1.6,0-3.1,0.6-4.2,1.8L191.3,20.9C191.4,20.9,191.4,20.9,191.3,20.9C191.3,20.9,191.3,20.9,191.3,20.9z
		 M120.6,138.2l-20,5.2l5.2-20l89.8-89.8l14.8,14.8L120.6,138.2z M214.8,14.5l14.8,14.8L218.9,40l-14.8-14.8L214.8,14.5z"/>
	<path class="st0" d="M238,65c-3.3,0-6,2.7-6,6v192.8H43.8V34.4h111.1c3.3,0,6-2.7,6-6s-2.7-6-6-6H37.8c-3.3,0-6,2.7-6,6v241.4
		c0,3.3,2.7,6,6,6H238c3.3,0,6-2.7,6-6V71C244,67.7,241.4,65,238,65z"/>
</g>
</svg>
