<svg id="Capa_1" data-name="Capa 1" xmlns="http://www.w3.org/2000/svg" viewBox="0 0 212.2 275.8"><defs><style>.cls-1{fill:#4ab5dd;}</style></defs><title>editerbleu</title><path class="cls-1" d="M191.3,20.9,96.1,116.1a6.27,6.27,0,0,0-1.6,2.7l-8.2,31.5a6.24,6.24,0,0,0,1.6,5.8,6.17,6.17,0,0,0,4.2,1.8,7.72,7.72,0,0,0,1.5-.2l31.5-8.2a5.74,5.74,0,0,0,2.7-1.6L223,52.7h0l19.2-19.2a6.1,6.1,0,0,0,0-8.5L219,1.8A6.17,6.17,0,0,0,214.8,0a5.6,5.6,0,0,0-4.2,1.8L191.3,20.9ZM120.6,138.2l-20,5.2,5.2-20,89.8-89.8,14.8,14.8ZM214.8,14.5l14.8,14.8L218.9,40,204.1,25.2Z" transform="translate(-31.8)"/><path class="cls-1" d="M238,65a6,6,0,0,0-6,6V263.8H43.8V34.4H154.9a6,6,0,1,0,0-12H37.8a6,6,0,0,0-6,6V269.8a6,6,0,0,0,6,6H238a6,6,0,0,0,6-6V71A6,6,0,0,0,238,65Z" transform="translate(-31.8)"/></svg>