<svg id="Capa_1" data-name="Capa 1" xmlns="http://www.w3.org/2000/svg" viewBox="0 0 212.2 275.8"><defs><style>.cls-1{fill:#a161b1;}</style></defs><title>editerviolet</title><path class="cls-1" d="M159.5,20.9,64.3,116.1a6.27,6.27,0,0,0-1.6,2.7l-8.2,31.5a6.24,6.24,0,0,0,1.6,5.8,6.17,6.17,0,0,0,4.2,1.8,7.72,7.72,0,0,0,1.5-.2l31.5-8.2a5.74,5.74,0,0,0,2.7-1.6l95.2-95.2h0l19.2-19.2a6.1,6.1,0,0,0,0-8.5L187.2,1.8A6.17,6.17,0,0,0,183,0a5.6,5.6,0,0,0-4.2,1.8ZM88.8,138.2l-20,5.2,5.2-20,89.8-89.8,14.8,14.8ZM183,14.5l14.8,14.8L187.1,40,172.3,25.2Z" transform="translate(0 0)"/><path class="cls-1" d="M206.2,65a6,6,0,0,0-6,6V263.8H12V34.4H123.1a6,6,0,1,0,0-12H6a6,6,0,0,0-6,6V269.8a6,6,0,0,0,6,6H206.2a6,6,0,0,0,6-6V71A6,6,0,0,0,206.2,65Z" transform="translate(0 0)"/></svg>