<svg id="Capa_1" data-name="Capa 1" xmlns="http://www.w3.org/2000/svg" viewBox="0 0 44.8 44.8"><defs><style>.cls-1{fill:#db6b93;}</style></defs><title>informationrose</title><path class="cls-1" d="M27.8,34.9c-1.2.5-2.1.8-2.8,1.1a8.6,8.6,0,0,1-2.4.4,4.83,4.83,0,0,1-3.3-1,3.37,3.37,0,0,1-1.2-2.6,6.15,6.15,0,0,1,.1-1.3q.15-.6.3-1.5L20,24.8c.1-.5.2-1,.3-1.4a4.87,4.87,0,0,0,.1-1.2,1.81,1.81,0,0,0-.4-1.4,2.2,2.2,0,0,0-1.6-.4,5,5,0,0,0-1.2.2c-.4.1-.7.2-1,.3l.4-1.6c1-.4,1.9-.7,2.8-1a7.66,7.66,0,0,1,2.5-.4,4.83,4.83,0,0,1,3.3,1,3.27,3.27,0,0,1,1.1,2.6,6.82,6.82,0,0,1-.1,1.2,7.49,7.49,0,0,1-.4,1.6l-1.5,5.2c-.1.4-.2.9-.3,1.4a5.74,5.74,0,0,0-.1,1.2,1.67,1.67,0,0,0,.5,1.4,2.83,2.83,0,0,0,1.6.4,5,5,0,0,0,1.2-.2,6.21,6.21,0,0,0,1-.3ZM27.5,14a3.92,3.92,0,0,1-5,0,2.9,2.9,0,0,1-1-2.3,2.9,2.9,0,0,1,1-2.3,3.74,3.74,0,0,1,2.5-1,3.32,3.32,0,0,1,2.5,1,2.9,2.9,0,0,1,1,2.3A3,3,0,0,1,27.5,14Z" transform="translate(0 0)"/><path class="cls-1" d="M22.4,44.8A22.4,22.4,0,1,1,44.8,22.4,22.4,22.4,0,0,1,22.4,44.8Zm0-42.9A20.5,20.5,0,1,0,42.9,22.4,20.5,20.5,0,0,0,22.4,1.9Z" transform="translate(0 0)"/></svg>