<?xml version="1.0" encoding="utf-8"?>
<!-- Generator: Adobe Illustrator 21.0.0, SVG Export Plug-In . SVG Version: 6.00 Build 0)  -->
<svg version="1.1" id="Capa_1" xmlns="http://www.w3.org/2000/svg" xmlns:xlink="http://www.w3.org/1999/xlink" x="0px" y="0px"
	 width="46px" height="60px" viewBox="0 0 46 60" style="enable-background:new 0 0 46 60;" xml:space="preserve">
<style type="text/css">
	.st0{fill:#FFFFFF;}
</style>
<g>
	<path class="st0" d="M28.7,41.6c-1.2,0.5-2.1,0.8-2.8,1.1c-0.7,0.2-1.5,0.4-2.4,0.4c-1.4,0-2.5-0.3-3.3-1c-0.8-0.7-1.2-1.6-1.2-2.6
		c0-0.4,0-0.8,0.1-1.3c0.1-0.4,0.2-0.9,0.3-1.5l1.5-5.2c0.1-0.5,0.2-1,0.3-1.4c0.1-0.4,0.1-0.8,0.1-1.2c0-0.7-0.1-1.1-0.4-1.4
		c-0.3-0.3-0.8-0.4-1.6-0.4c-0.4,0-0.8,0.1-1.2,0.2c-0.4,0.1-0.7,0.2-1,0.3l0.4-1.6c1-0.4,1.9-0.7,2.8-1c0.9-0.3,1.7-0.4,2.5-0.4
		c1.4,0,2.5,0.3,3.3,1c0.8,0.7,1.1,1.6,1.1,2.6c0,0.2,0,0.6-0.1,1.2C27,30,26.9,30.5,26.7,31l-1.5,5.2c-0.1,0.4-0.2,0.9-0.3,1.4
		c-0.1,0.5-0.1,0.9-0.1,1.2c0,0.7,0.2,1.2,0.5,1.4c0.3,0.2,0.8,0.4,1.6,0.4c0.4,0,0.8-0.1,1.2-0.2c0.4-0.1,0.8-0.2,1-0.3L28.7,41.6z
		 M28.4,20.7c-0.7,0.6-1.5,0.9-2.5,0.9c-1,0-1.8-0.3-2.5-0.9c-0.7-0.6-1-1.4-1-2.3c0-0.9,0.3-1.7,1-2.3c0.7-0.6,1.5-1,2.5-1
		c1,0,1.8,0.3,2.5,1c0.7,0.6,1,1.4,1,2.3C29.4,19.3,29.1,20,28.4,20.7z"/>
</g>
<g>
	<path class="st0" d="M23.3,51.5c-12.4,0-22.4-10.1-22.4-22.4c0-12.4,10.1-22.4,22.4-22.4c12.4,0,22.4,10.1,22.4,22.4
		C45.7,41.5,35.6,51.5,23.3,51.5z M23.3,8.6C12,8.6,2.8,17.8,2.8,29.1S12,49.6,23.3,49.6s20.5-9.2,20.5-20.5S34.6,8.6,23.3,8.6z"/>
</g>
</svg>
