<svg id="Capa_1" data-name="Capa 1" xmlns="http://www.w3.org/2000/svg" viewBox="0 0 164.51 201.33"><defs><style>.cls-1{fill:#4ab5dd;}</style></defs><title>medecinbleu</title><circle class="cls-1" cx="77.18" cy="10.08" r="10.08"/><circle class="cls-1" cx="130.61" cy="10.08" r="10.08"/><path class="cls-1" d="M160.64,19.25A28,28,0,0,0,136.1,5.08v10A18.34,18.34,0,0,1,152,42.6L119.86,98.23a18.34,18.34,0,0,1-31.77,0L56,42.6A18.34,18.34,0,0,1,71.85,15.08v-10A28.34,28.34,0,0,0,47.31,47.6l32.12,55.64A28,28,0,0,0,99,117v26.83c0,26.21-15.47,47.54-34.49,47.54S30,170,30,143.79V111.84a25,25,0,1,0-10,0v31.95c0,31.73,20,57.54,44.49,57.54S109,175.52,109,143.79V117a28,28,0,0,0,19.54-13.73L160.64,47.6A28,28,0,0,0,160.64,19.25Z" transform="translate(0.01)"/></svg>