<svg id="Capa_1" data-name="Capa 1" xmlns="http://www.w3.org/2000/svg" viewBox="0 0 164.48 201.33"><defs><style>.cls-1{fill:#fff;}</style></defs><title>medecin</title><circle class="cls-1" cx="77.17" cy="10.08" r="10.08"/><circle class="cls-1" cx="130.6" cy="10.08" r="10.08"/><path class="cls-1" d="M179.06,19.25A28.05,28.05,0,0,0,154.52,5.08v10A18.34,18.34,0,0,1,170.4,42.6L138.28,98.23a18.34,18.34,0,0,1-31.77,0L74.39,42.6A18.34,18.34,0,0,1,90.27,15.08v-10A28.34,28.34,0,0,0,65.73,47.6l32.12,55.64A28,28,0,0,0,117.4,117v26.83c0,26.21-15.47,47.54-34.49,47.54S48.41,170,48.41,143.79V111.84a25,25,0,1,0-10,0v31.95c0,31.73,20,57.54,44.49,57.54s44.49-25.81,44.49-57.54V117a28,28,0,0,0,19.54-13.73L179.06,47.6A28,28,0,0,0,179.06,19.25Z" transform="translate(-18.42)"/></svg>