<svg id="Capa_1" data-name="Capa 1" xmlns="http://www.w3.org/2000/svg" viewBox="0 0 164.5 201.33"><defs><style>.cls-1{fill:#a161b1;}</style></defs><title>medecinviolet</title><circle class="cls-1" cx="77.17" cy="10.08" r="10.08"/><circle class="cls-1" cx="130.6" cy="10.08" r="10.08"/><path class="cls-1" d="M160.65,19.25A28,28,0,0,0,136.11,5.08v10A18.34,18.34,0,0,1,152,42.6L119.87,98.23a18.34,18.34,0,0,1-31.77,0L56,42.6A18.34,18.34,0,0,1,71.86,15.08v-10A28.34,28.34,0,0,0,47.32,47.6l32.12,55.64A28,28,0,0,0,99,117v26.83c0,26.21-15.47,47.54-34.49,47.54S30,170,30,143.79V111.84a25,25,0,1,0-10,0v31.95c0,31.73,20,57.54,44.49,57.54S109,175.52,109,143.79V117a28,28,0,0,0,19.54-13.73l32.1-55.67A28,28,0,0,0,160.65,19.25Z" transform="translate(-0.01)"/></svg>