<svg id="Capa_1" data-name="Capa 1" xmlns="http://www.w3.org/2000/svg" viewBox="0 0 43.59 43.59"><defs><style>.cls-1{fill:#fff;}</style></defs><title>parametres</title><path class="cls-1" d="M43.94,27l-2.53-.49a4.39,4.39,0,0,1-2.71-6.91l1.59-2.16a.81.81,0,0,0-.08-1L36.78,13a.81.81,0,0,0-1-.1L33.63,14.3a4.39,4.39,0,0,1-6.8-3l-.41-2.65a.81.81,0,0,0-.8-.68H20.78a.81.81,0,0,0-.79.66l-.63,3.26a4.39,4.39,0,0,1-6.77,2.81L9.83,12.86a.81.81,0,0,0-1,.1L5.39,16.38a.81.81,0,0,0-.08,1l1.59,2.16A4.39,4.39,0,0,1,4.18,26.5L1.65,27a.81.81,0,0,0-.65.79v4.84a.81.81,0,0,0,.68.8l2.65.41a4.39,4.39,0,0,1,3,6.8L5.86,42.76a.81.81,0,0,0,.1,1L9.38,47.2a.81.81,0,0,0,1,.08l2.16-1.59a4.39,4.39,0,0,1,6.91,2.71L20,50.94a.81.81,0,0,0,.79.65h4.84a.81.81,0,0,0,.8-.68L26.7,49a4.39,4.39,0,0,1,6.93-2.87l1.52,1.11a.81.81,0,0,0,1-.08l3.42-3.42a.81.81,0,0,0,.1-1l-1.44-2.13a4.39,4.39,0,0,1,3-6.8l2.65-.41a.81.81,0,0,0,.69-.8V27.78A.81.81,0,0,0,43.94,27Zm-1,4.94-2,.3A6,6,0,0,0,37,41.53L38,43.11l-2.46,2.46-1-.71a6,6,0,0,0-9.49,3.93L24.93,50H21.44l-.36-1.87a6,6,0,0,0-9.45-3.71L10,45.57,7.57,43.11l1.07-1.58a6,6,0,0,0-4.06-9.3l-2-.3V28.44l1.87-.36a6,6,0,0,0,3.71-9.45L7,17l2.46-2.46,2.2,1.49a6,6,0,0,0,9.26-3.84l.5-2.61h3.48l.3,2a6,6,0,0,0,9.3,4.06l1.58-1.07L38.57,17l-1.18,1.6a6,6,0,0,0,3.71,9.45l1.87.36Z" transform="translate(-1 -8)"/><path class="cls-1" d="M23.2,21.72a8.48,8.48,0,1,0,8.48,8.48A8.49,8.49,0,0,0,23.2,21.72Zm0,15.34a6.86,6.86,0,1,1,6.86-6.86A6.87,6.87,0,0,1,23.2,37.06Z" transform="translate(-1 -8)"/><path class="cls-1" d="M23.2,25.76a4.44,4.44,0,1,0,4.44,4.44A4.45,4.45,0,0,0,23.2,25.76Zm0,7.27A2.83,2.83,0,1,1,26,30.2,2.83,2.83,0,0,1,23.2,33Z" transform="translate(-1 -8)"/></svg>