<svg id="Capa_1" data-name="Capa 1" xmlns="http://www.w3.org/2000/svg" viewBox="0 0 43.57 43.62"><defs><style>.cls-1{fill:#a161b1;}</style></defs><title>parametresviolet</title><path class="cls-1" d="M42.94,19l-2.53-.49a4.39,4.39,0,0,1-2.71-6.91l1.59-2.16a.81.81,0,0,0-.08-1L35.78,5a.81.81,0,0,0-1-.1l-2.15,1.4a4.39,4.39,0,0,1-6.8-3L25.42.68a.81.81,0,0,0-.8-.68H19.78A.81.81,0,0,0,19,.66l-.63,3.26a4.39,4.39,0,0,1-6.78,2.81L8.83,4.89a.81.81,0,0,0-1,.1L4.39,8.41a.81.81,0,0,0-.08,1L5.9,11.57a4.39,4.39,0,0,1-2.72,7L.65,19a.81.81,0,0,0-.65.79v4.84a.81.81,0,0,0,.68.8l2.65.41a4.39,4.39,0,0,1,3,6.8L4.86,34.79a.81.81,0,0,0,.1,1l3.42,3.44a.81.81,0,0,0,1,.08l2.16-1.59a4.39,4.39,0,0,1,6.91,2.71L19,43a.81.81,0,0,0,.79.65h4.84a.81.81,0,0,0,.8-.68L25.7,41a4.39,4.39,0,0,1,6.93-2.87l1.52,1.11a.81.81,0,0,0,1-.08l3.42-3.42a.81.81,0,0,0,.1-1l-1.44-2.13a4.39,4.39,0,0,1,3-6.8l2.65-.41a.81.81,0,0,0,.69-.8V19.81A.81.81,0,0,0,42.94,19Zm-1,4.94-2,.3A6,6,0,0,0,36,33.56l1,1.58L34.54,37.6l-1-.71a6,6,0,0,0-9.49,3.93L23.93,42H20.44l-.36-1.87a6,6,0,0,0-9.45-3.71L9,37.6,6.57,35.14l1.07-1.58a6,6,0,0,0-4.06-9.3l-2-.3V20.47l1.87-.36a6,6,0,0,0,3.71-9.45L6,9,8.46,6.57,10.66,8a6,6,0,0,0,9.26-3.84l.5-2.61H23.9l.3,2a6,6,0,0,0,9.3,4.06l1.58-1.07L37.57,9l-1.18,1.6A6,6,0,0,0,40.1,20l1.87.36Z" transform="translate(0 0)"/><path class="cls-1" d="M22.2,13.75a8.48,8.48,0,1,0,8.48,8.48h0A8.49,8.49,0,0,0,22.2,13.75Zm0,15.34a6.86,6.86,0,1,1,6.86-6.86A6.86,6.86,0,0,1,22.2,29.09Z" transform="translate(0 0)"/><path class="cls-1" d="M22.2,17.79a4.44,4.44,0,1,0,4.44,4.44,4.44,4.44,0,0,0-4.44-4.44Zm0,7.27A2.83,2.83,0,1,1,25,22.2h0A2.83,2.83,0,0,1,22.2,25Z" transform="translate(0 0)"/></svg>