<svg id="Capa_1" data-name="Capa 1" xmlns="http://www.w3.org/2000/svg" viewBox="0 0 466.67 533.33"><defs><style>.cls-1{fill:#4ab5dd;}</style></defs><title>pdfbleu</title><path class="cls-1" d="M438.55,307c-7.11-7-22.87-10.71-46.86-11-16.24-.18-35.78,1.25-56.34,4.13-9.2-5.31-18.69-11.09-26.14-18.05-20-18.71-36.76-44.67-47.17-73.23.68-2.67,1.26-5,1.8-7.4,0,0,11.28-64.09,8.3-85.76a25,25,0,0,0-1.46-6.14l-1-2.52c-3.07-7.08-9.09-14.58-18.52-14.17l-5.53-.18h-.15c-10.52,0-19.1,5.38-21.35,13.42-6.84,25.23.22,63,13,111.84l-3.27,8c-9.16,22.33-20.64,44.82-30.77,64.67l-1.32,2.58C191.12,314,181.45,331.7,172.69,346.7l-9.05,4.79c-.66.35-16.17,8.55-19.81,10.75C113,380.66,92.52,401.58,89.13,418.18c-1.08,5.3-.28,12.08,5.22,15.21l8.75,4.4a26.37,26.37,0,0,0,11.9,2.87c22,0,47.5-27.38,82.65-88.73A823.32,823.32,0,0,1,325,321.68c30.86,17.38,68.82,29.45,92.78,29.45a43.37,43.37,0,0,0,10.9-1.19,18.54,18.54,0,0,0,10.83-7.39c4.65-7,5.59-16.63,4.33-26.5C443.42,313.11,441.08,309.49,438.55,307ZM110.23,424c4-11,19.87-32.63,43.33-51.85,1.48-1.2,5.11-4.6,8.43-7.76C137.47,403.5,121,419.09,110.23,424Zm139-320c7.07,0,11.08,17.81,11.42,34.51s-3.57,28.42-8.42,37.09c-4-12.84-6-33.07-6-46.3C246.24,129.29,245.94,104,249.18,104ZM207.74,332c4.92-8.81,10-18.1,15.28-28a532.43,532.43,0,0,0,26.81-58.51c11.93,21.71,26.79,40.17,44.26,55q3.27,2.77,6.91,5.55C265.47,313.09,234.77,321.64,207.74,332Zm224-2c-2.16,1.35-8.36,2.14-12.35,2.14-12.87,0-28.79-5.88-51.11-15.45,8.58-.64,16.44-1,23.49-1,12.91,0,16.73-.06,29.35,3.16S433.89,328.67,431.72,330Zm38.82-226.16L396.13,29.46C379.92,13.26,347.92,0,325,0H75A41.79,41.79,0,0,0,33.33,41.67v450A41.79,41.79,0,0,0,75,533.33H458.33A41.79,41.79,0,0,0,500,491.67V175C500,152.08,486.74,120.07,470.54,103.87ZM447,127.44a44,44,0,0,1,4.83,5.89H366.67V48.2A44,44,0,0,1,372.56,53Zm19.7,364.23a8.44,8.44,0,0,1-8.33,8.33H75a8.44,8.44,0,0,1-8.33-8.33v-450A8.45,8.45,0,0,1,75,33.33H325a45.42,45.42,0,0,1,8.33.89V166.67H465.78a45.41,45.41,0,0,1,.89,8.33Z" transform="translate(-33.33)"/></svg>