<?xml version="1.0" encoding="utf-8"?>
<!-- Generator: Adobe Illustrator 21.0.2, SVG Export Plug-In . SVG Version: 6.00 Build 0)  -->
<svg version="1.1" id="Capa_1" xmlns="http://www.w3.org/2000/svg" xmlns:xlink="http://www.w3.org/1999/xlink" x="0px" y="0px"
	 width="466.7px" height="533.3px" viewBox="0 0 466.7 533.3" style="enable-background:new 0 0 466.7 533.3;" xml:space="preserve"
	>
<style type="text/css">
	.st0{fill:#A161B1;}
</style>
<title>pdfbleu</title>
<path class="st0" d="M405.2,307c-7.1-7-22.9-10.7-46.9-11c-16.2-0.2-35.8,1.2-56.3,4.1c-9.2-5.3-18.7-11.1-26.1-18
	c-20-18.7-36.8-44.7-47.2-73.2c0.7-2.7,1.3-5,1.8-7.4c0,0,11.3-64.1,8.3-85.8c-0.2-2.1-0.7-4.2-1.5-6.1l-1-2.5
	c-3.1-7.1-9.1-14.6-18.5-14.2l-5.5-0.2h-0.1c-10.5,0-19.1,5.4-21.4,13.4c-6.8,25.2,0.2,63,13,111.8l-3.3,8
	c-9.2,22.3-20.6,44.8-30.8,64.7l-1.3,2.6c-10.7,20.8-20.3,38.5-29.1,53.5l-9.1,4.8c-0.7,0.4-16.2,8.5-19.8,10.8
	c-30.8,18.4-51.3,39.3-54.7,55.9c-1.1,5.3-0.3,12.1,5.2,15.2l8.8,4.4c3.7,1.9,7.8,2.9,11.9,2.9c22,0,47.5-27.4,82.6-88.7
	c41.6-13.4,84.2-23.6,127.3-30.2c30.9,17.4,68.8,29.5,92.8,29.5c3.7,0.1,7.3-0.3,10.9-1.2c4.4-1.1,8.2-3.7,10.8-7.4
	c4.6-7,5.6-16.6,4.3-26.5C410.1,313.1,407.8,309.5,405.2,307z M76.9,424c4-11,19.9-32.6,43.3-51.9c1.5-1.2,5.1-4.6,8.4-7.8
	C104.1,403.5,87.7,419.1,76.9,424z M215.9,104c7.1,0,11.1,17.8,11.4,34.5s-3.6,28.4-8.4,37.1c-4-12.8-6-33.1-6-46.3
	C212.9,129.3,212.6,104,215.9,104L215.9,104z M174.4,332c4.9-8.8,10-18.1,15.3-28c10.1-18.9,19.1-38.5,26.8-58.5
	c11.9,21.7,26.8,40.2,44.3,55c2.2,1.8,4.5,3.7,6.9,5.5C232.1,313.1,201.4,321.6,174.4,332z M398.4,330c-2.2,1.4-8.4,2.1-12.3,2.1
	c-12.9,0-28.8-5.9-51.1-15.5c8.6-0.6,16.4-1,23.5-1c12.9,0,16.7-0.1,29.4,3.2S400.6,328.7,398.4,330L398.4,330z M437.2,103.8
	l-74.4-74.4C346.6,13.3,314.6,0,291.7,0h-250C18.7,0.1,0.1,18.7,0,41.7v450c0.1,23,18.7,41.6,41.7,41.7H425
	c23-0.1,41.6-18.7,41.7-41.7V175C466.7,152.1,453.4,120.1,437.2,103.8L437.2,103.8z M413.7,127.4c1.8,1.8,3.4,3.8,4.8,5.9h-85.2
	V48.2c2.1,1.4,4.1,3,5.9,4.8L413.7,127.4z M433.4,491.7c-0.1,4.6-3.8,8.3-8.3,8.3H41.7c-4.6-0.1-8.3-3.8-8.3-8.3v-450
	c0.1-4.6,3.8-8.3,8.3-8.3h250c2.8,0,5.6,0.3,8.3,0.9v132.4h132.5c0.6,2.7,0.9,5.5,0.9,8.3L433.4,491.7z"/>
</svg>
