<svg id="Capa_1" data-name="Capa 1" xmlns="http://www.w3.org/2000/svg" viewBox="0 0 29.73 29.74"><defs><style>.cls-1{fill:#4ab5dd;}</style></defs><title>phonebleu</title><path class="cls-1" d="M23.9,29.73a12.77,12.77,0,0,1-4.37-.93,32.82,32.82,0,0,1-11-7.56A32.84,32.84,0,0,1,1,10.24C-.31,6.93-.31,4.24.92,3l.54-.56C2.59,1.27,3.86-.06,5.54,0,6.7.05,7.82.77,9,2.2c3.4,4.23,1.87,5.73.09,7.48L8.75,10c-.29.29-.84,1.63,4.26,6.73a28.27,28.27,0,0,0,4.22,3.62c.71.46,2,1.17,2.51.64l.32-.32c1.74-1.77,3.25-3.3,7.47.1C29,21.91,29.68,23,29.73,24.2c.07,1.68-1.27,3-2.45,4.07l-.56.54A3.9,3.9,0,0,1,23.9,29.73ZM5.42,1C4.22,1,3.14,2.14,2.19,3.14l-.56.58C.71,4.64.8,7,1.86,9.86A31.83,31.83,0,0,0,9.19,20.54a31.81,31.81,0,0,0,10.68,7.33c2.81,1.06,5.22,1.15,6.13.24l.58-.56c1-1,2.19-2.08,2.14-3.31a4,4,0,0,0-1.83-2.69c-3.52-2.83-4.5-1.83-6.14-.18l-.32.32c-.78.78-2,.61-3.77-.51a29.2,29.2,0,0,1-4.38-3.75C8.07,13.19,6.72,10.61,8,9.28L8.36,9C10,7.33,11,6.35,8.19,2.83A4.06,4.06,0,0,0,5.5,1Z" transform="translate(0 0)"/></svg>