<?xml version="1.0" encoding="utf-8"?>
<!-- Generator: Adobe Illustrator 21.0.2, SVG Export Plug-In . SVG Version: 6.00 Build 0)  -->
<svg version="1.1" id="Capa_1" xmlns="http://www.w3.org/2000/svg" xmlns:xlink="http://www.w3.org/1999/xlink" x="0px" y="0px"
	 width="29.7px" height="29.7px" viewBox="0 0 29.7 29.7" style="enable-background:new 0 0 29.7 29.7;" xml:space="preserve">
<style type="text/css">
	.st0{fill:#A161B1;}
</style>
<title>phone</title>
<path class="st0" d="M23.9,29.7c-1.5-0.1-3-0.4-4.4-0.9c-4.1-1.7-7.9-4.3-11-7.6c-3.2-3.1-5.8-6.9-7.6-11c-1.3-3.3-1.3-6,0-7.2
	l0.5-0.6C2.6,1.3,3.9-0.1,5.5,0C6.7,0.1,7.8,0.8,9,2.2c3.4,4.2,1.9,5.7,0.1,7.5L8.8,10c-0.3,0.3-0.8,1.6,4.3,6.7
	c1.3,1.3,2.7,2.6,4.2,3.6c0.7,0.5,2,1.2,2.5,0.6l0.3-0.3c1.7-1.8,3.2-3.3,7.5,0.1c1.5,1.1,2.2,2.2,2.2,3.4c0.1,1.7-1.3,3-2.5,4.1
	l-0.6,0.5C25.9,29.5,24.9,29.8,23.9,29.7z M5.4,1C4.2,1,3.1,2.1,2.2,3.1L1.6,3.7C0.7,4.6,0.8,7,1.9,9.9c1.7,4,4.2,7.7,7.3,10.7
	c3,3.1,6.7,5.6,10.7,7.3c2.8,1.1,5.2,1.1,6.1,0.2l0.6-0.6c1-1,2.2-2.1,2.1-3.3c-0.2-1.1-0.9-2.1-1.8-2.7c-3.5-2.8-4.5-1.8-6.1-0.2
	l-0.3,0.3c-0.8,0.8-2,0.6-3.8-0.5c-1.6-1.1-3-2.4-4.4-3.8C8.1,13.2,6.7,10.6,8,9.3L8.4,9C10,7.3,11,6.3,8.2,2.8
	C7.6,1.9,6.6,1.2,5.4,1L5.4,1z"/>
</svg>
