<svg id="Capa_1" data-name="Capa 1" xmlns="http://www.w3.org/2000/svg" viewBox="0 0 46 60"><defs><style>.cls-1{fill:#fff;}</style></defs><title>profil</title><path class="cls-1" d="M48,42.89l-9.55-4.78A2.63,2.63,0,0,1,37,35.75V32.37c.23-.28.47-.6.72-1a22.89,22.89,0,0,0,3-5.8A4,4,0,0,0,43,22V18a4,4,0,0,0-1-2.62V10.06a9,9,0,0,0-2.09-6.53C37.85,1.19,34.52,0,30,0s-7.85,1.19-9.91,3.53A9,9,0,0,0,18,10.06v5.32A4,4,0,0,0,17,18v4a4,4,0,0,0,1.5,3.11A21,21,0,0,0,22,32.35v3.31A2.64,2.64,0,0,1,20.62,38L11.7,42.84A9,9,0,0,0,7,50.76V54c0,4.75,15,6,23,6s23-1.25,23-6V51A9,9,0,0,0,48,42.89ZM51,54c0,1.36-7.41,4-21,4S9,55.36,9,54V50.76a7,7,0,0,1,3.66-6.16l8.92-4.87A4.64,4.64,0,0,0,24,35.65v-4l-.23-.28a18.88,18.88,0,0,1-3.41-7.07l-.09-.4-.34-.22A2,2,0,0,1,19,22V18a2,2,0,0,1,.67-1.48l.33-.3V9.87a6.94,6.94,0,0,1,1.6-5C23.25,3,26.08,2,30,2s6.73,1,8.39,2.83a7,7,0,0,1,1.62,5v6.36l.33.3A2,2,0,0,1,41,18v4a2,2,0,0,1-1.42,1.9l-.5.15-.16.5a20.93,20.93,0,0,1-2.83,5.71,13.16,13.16,0,0,1-.84,1.08l-.25.28v4.13a4.62,4.62,0,0,0,2.57,4.15l9.55,4.78A7,7,0,0,1,51,51Z" transform="translate(-7)"/></svg>