<svg id="Capa_1" data-name="Capa 1" xmlns="http://www.w3.org/2000/svg" viewBox="0 0 46 60"><defs><style>.cls-1{fill:#a161b1;}</style></defs><title>profilviolet</title><path class="cls-1" d="M41,42.89l-9.55-4.78A2.63,2.63,0,0,1,30,35.75V32.37a9.36,9.36,0,0,0,.72-1,22.89,22.89,0,0,0,3-5.8A4,4,0,0,0,36,22V18a4,4,0,0,0-1-2.62V10.06a9,9,0,0,0-2.09-6.53C30.85,1.19,27.52,0,23,0s-7.85,1.19-9.91,3.53A9,9,0,0,0,11,10.06v5.32A4,4,0,0,0,10,18v4a4,4,0,0,0,1.5,3.11A21,21,0,0,0,15,32.35v3.31A2.64,2.64,0,0,1,13.62,38L4.7,42.84A9,9,0,0,0,0,50.76V54c0,4.75,15,6,23,6s23-1.25,23-6V51A9,9,0,0,0,41,42.89ZM44,54c0,1.36-7.41,4-21,4S2,55.36,2,54V50.76A7,7,0,0,1,5.66,44.6l8.92-4.87A4.64,4.64,0,0,0,17,35.65v-4l-.23-.28a18.88,18.88,0,0,1-3.41-7.07l-.09-.4-.34-.22A2,2,0,0,1,12,22V18a2,2,0,0,1,.67-1.48l.33-.3V9.87a6.94,6.94,0,0,1,1.6-5C16.25,3,19.08,2,23,2s6.73,1,8.39,2.83a7,7,0,0,1,1.62,5v6.36l.33.3A2,2,0,0,1,34,18v4a2,2,0,0,1-1.42,1.9l-.5.15-.16.5a20.93,20.93,0,0,1-2.83,5.71,13.16,13.16,0,0,1-.84,1.08l-.25.28v4.13a4.62,4.62,0,0,0,2.57,4.15l9.55,4.78A7,7,0,0,1,44,51Z" transform="translate(0)"/></svg>