<svg id="Capa_1" data-name="Capa 1" xmlns="http://www.w3.org/2000/svg" viewBox="0 0 367 511"><defs><style>.cls-1{fill:#a161b1;}</style></defs><title>questionnaireviolet</title><path class="cls-1" d="M343,56V32H294.29a39.51,39.51,0,0,0-77.57,0H168V56H72V511H439V56Zm81,440H87V71h81V87.5h15V47h48V39.5a24.5,24.5,0,0,1,49,0V47h48V87.5h15V71h81Z" transform="translate(-72)"/><rect class="cls-1" x="175.5" y="32" width="16" height="15"/><path class="cls-1" d="M104,479H407V88H104Zm15-376H392V464H119Z" transform="translate(-72)"/><rect class="cls-1" x="159.5" y="136" width="128" height="15"/><rect class="cls-1" x="79.5" y="136" width="64" height="15"/><rect class="cls-1" x="231.5" y="176" width="56" height="15"/><rect class="cls-1" x="79.5" y="176" width="136" height="15"/><rect class="cls-1" x="127.5" y="216" width="160" height="15"/><rect class="cls-1" x="79.5" y="216" width="32" height="15"/><rect class="cls-1" x="199.5" y="256" width="88" height="15"/><rect class="cls-1" x="79.5" y="256" width="104" height="15"/><rect class="cls-1" x="247.5" y="296" width="40" height="15"/><rect class="cls-1" x="79.5" y="296" width="152" height="15"/><rect class="cls-1" x="151.5" y="336" width="136" height="15"/><rect class="cls-1" x="79.5" y="336" width="56" height="15"/><rect class="cls-1" x="215.5" y="376" width="72" height="15"/><rect class="cls-1" x="79.5" y="376" width="120" height="15"/><rect class="cls-1" x="127.5" y="416" width="160" height="15"/><rect class="cls-1" x="79.5" y="416" width="32" height="15"/></svg>