<svg id="Capa_1" data-name="Capa 1" xmlns="http://www.w3.org/2000/svg" viewBox="0 0 367 510.98"><defs><style>.cls-1{fill:#fff;}</style></defs><title>questionnaire</title><path class="cls-1" d="M271,56V32H222.29a39.51,39.51,0,0,0-77.57,0H96V56H0V511H367V56Zm81,440H15V71H96v16.5h15V47h48v-7.5a24.5,24.5,0,0,1,49,0V47h48v40.5h15V71h81Z" transform="translate(0 0)"/><rect class="cls-1" x="175.5" y="31.98" width="16" height="15"/><path class="cls-1" d="M32,479H335V88H32ZM47,103H320V464H47Z" transform="translate(0 0)"/><rect class="cls-1" x="159.5" y="135.98" width="128" height="15"/><rect class="cls-1" x="79.5" y="135.98" width="64" height="15"/><rect class="cls-1" x="231.5" y="175.98" width="56" height="15"/><rect class="cls-1" x="79.5" y="175.98" width="136" height="15"/><rect class="cls-1" x="127.5" y="215.98" width="160" height="15"/><rect class="cls-1" x="79.5" y="215.98" width="32" height="15"/><rect class="cls-1" x="199.5" y="255.98" width="88" height="15"/><rect class="cls-1" x="79.5" y="255.98" width="104" height="15"/><rect class="cls-1" x="247.5" y="295.98" width="40" height="15"/><rect class="cls-1" x="79.5" y="295.98" width="152" height="15"/><rect class="cls-1" x="151.5" y="335.98" width="136" height="15"/><rect class="cls-1" x="79.5" y="335.98" width="56" height="15"/><rect class="cls-1" x="215.5" y="375.98" width="72" height="15"/><rect class="cls-1" x="79.5" y="375.98" width="120" height="15"/><rect class="cls-1" x="127.5" y="415.98" width="160" height="15"/><rect class="cls-1" x="79.5" y="415.98" width="32" height="15"/></svg>