<?xml version="1.0" encoding="utf-8"?>
<!-- Generator: Adobe Illustrator 21.0.2, SVG Export Plug-In . SVG Version: 6.00 Build 0)  -->
<svg version="1.1" id="Capa_1" xmlns="http://www.w3.org/2000/svg" xmlns:xlink="http://www.w3.org/1999/xlink" x="0px" y="0px"
	 width="46px" height="60px" viewBox="0 0 46 60" style="enable-background:new 0 0 46 60;" xml:space="preserve">
<style type="text/css">
	.st0{fill:#FFFFFF;}
</style>
<title>profil</title>
<g>
	<path class="st0" d="M43.7,49.9L33.2,39.4c2.8-3.2,4.5-7.4,4.5-12C37.7,17.2,29.5,9,19.4,9C9.2,9,1,17.2,1,27.4s8.2,18.4,18.4,18.4
		c4.6,0,8.8-1.7,12-4.5l10.5,10.5c0.2,0.2,0.6,0.4,0.9,0.4c0.3,0,0.7-0.1,0.9-0.4C44.2,51.2,44.2,50.4,43.7,49.9z M3.6,27.4
		c0-8.7,7.1-15.8,15.8-15.8c8.7,0,15.8,7.1,15.8,15.8s-7.1,15.8-15.8,15.8C10.7,43.2,3.6,36.1,3.6,27.4z"/>
</g>
</svg>
