<svg id="Capa_1" data-name="Capa 1" xmlns="http://www.w3.org/2000/svg" viewBox="0 0 58 57"><defs><style>.cls-1{fill:#fff;}</style></defs><title>tableau</title><path class="cls-1" d="M42.9,4.5A5,5,0,0,0,38,.5a1,1,0,0,0,0,2,3,3,0,0,1,0,6,1,1,0,0,0,0,2,5,5,0,0,0,4.9-4H56v9H2v-9H19a1,1,0,0,0,0-2H17.18A3,3,0,1,1,20,8.5a1,1,0,0,0,0,2,5,5,0,1,0-4.9-6H0v53H58V4.5ZM56,55.5H2v-38H56Z" transform="translate(0 -0.5)"/><path class="cls-1" d="M26,2.5a3,3,0,0,1,0,6,1,1,0,0,0,0,2,5,5,0,0,0,0-10,1,1,0,0,0,0,2Z" transform="translate(0 -0.5)"/><path class="cls-1" d="M32,2.5a3,3,0,0,1,0,6,1,1,0,0,0,0,2,5,5,0,0,0,0-10,1,1,0,0,0,0,2Z" transform="translate(0 -0.5)"/><circle class="cls-1" cx="22" cy="24" r="1"/><circle class="cls-1" cx="29" cy="24" r="1"/><circle class="cls-1" cx="36" cy="24" r="1"/><circle class="cls-1" cx="43" cy="24" r="1"/><circle class="cls-1" cx="50" cy="24" r="1"/><circle class="cls-1" cx="8" cy="32" r="1"/><circle class="cls-1" cx="15" cy="32" r="1"/><circle class="cls-1" cx="22" cy="32" r="1"/><circle class="cls-1" cx="29" cy="32" r="1"/><circle class="cls-1" cx="36" cy="32" r="1"/><circle class="cls-1" cx="43" cy="32" r="1"/><circle class="cls-1" cx="50" cy="32" r="1"/><circle class="cls-1" cx="8" cy="39" r="1"/><circle class="cls-1" cx="15" cy="39" r="1"/><circle class="cls-1" cx="22" cy="39" r="1"/><circle class="cls-1" cx="29" cy="39" r="1"/><circle class="cls-1" cx="36" cy="39" r="1"/><circle class="cls-1" cx="43" cy="39" r="1"/><circle class="cls-1" cx="50" cy="39" r="1"/><circle class="cls-1" cx="8" cy="47" r="1"/><circle class="cls-1" cx="15" cy="47" r="1"/><circle class="cls-1" cx="22" cy="47" r="1"/><circle class="cls-1" cx="29" cy="47" r="1"/><circle class="cls-1" cx="36" cy="47" r="1"/></svg>