<svg id="Capa_1" data-name="Capa 1" xmlns="http://www.w3.org/2000/svg" viewBox="0 0 58 57"><defs><style>.cls-1{fill:#e77366;}</style></defs><title>tableauorange</title><path class="cls-1" d="M42.9,4A5,5,0,0,0,38,0a1,1,0,0,0,0,2,3,3,0,0,1,0,6,1,1,0,0,0,0,2,5,5,0,0,0,4.9-4H56v9H2V6H19a1,1,0,0,0,0-2H17.18A3,3,0,1,1,20,8a1,1,0,0,0,0,2,5,5,0,1,0-4.9-6H0V57H58V4ZM56,55H2V17H56Z" transform="translate(0 0)"/><path class="cls-1" d="M26,2a3,3,0,0,1,0,6,1,1,0,0,0,0,2A5,5,0,0,0,26,0a1,1,0,0,0,0,2Z" transform="translate(0 0)"/><path class="cls-1" d="M32,2a3,3,0,0,1,0,6,1,1,0,0,0,0,2A5,5,0,0,0,32,0a1,1,0,0,0,0,2Z" transform="translate(0 0)"/><circle class="cls-1" cx="22" cy="24" r="1"/><circle class="cls-1" cx="29" cy="24" r="1"/><circle class="cls-1" cx="36" cy="24" r="1"/><circle class="cls-1" cx="43" cy="24" r="1"/><circle class="cls-1" cx="50" cy="24" r="1"/><circle class="cls-1" cx="8" cy="32" r="1"/><circle class="cls-1" cx="15" cy="32" r="1"/><circle class="cls-1" cx="22" cy="32" r="1"/><circle class="cls-1" cx="29" cy="32" r="1"/><circle class="cls-1" cx="36" cy="32" r="1"/><circle class="cls-1" cx="43" cy="32" r="1"/><circle class="cls-1" cx="50" cy="32" r="1"/><circle class="cls-1" cx="8" cy="39" r="1"/><circle class="cls-1" cx="15" cy="39" r="1"/><circle class="cls-1" cx="22" cy="39" r="1"/><circle class="cls-1" cx="29" cy="39" r="1"/><circle class="cls-1" cx="36" cy="39" r="1"/><circle class="cls-1" cx="43" cy="39" r="1"/><circle class="cls-1" cx="50" cy="39" r="1"/><circle class="cls-1" cx="8" cy="47" r="1"/><circle class="cls-1" cx="15" cy="47" r="1"/><circle class="cls-1" cx="22" cy="47" r="1"/><circle class="cls-1" cx="29" cy="47" r="1"/><circle class="cls-1" cx="36" cy="47" r="1"/></svg>