<svg id="Capa_1" data-name="Capa 1" xmlns="http://www.w3.org/2000/svg" viewBox="0 0 56.42 58.42"><defs><style>.cls-1{fill:#4ab5dd;}</style></defs><title>transmettrebleu</title><path class="cls-1" d="M56.41,14.49,42,0V8.65a20.55,20.55,0,0,0-8.56,1.77H0v48H48V22.94ZM42.22,10.65H44V4.85l9.59,9.64L48,20.11h0l-1,1-3,3v-5.6h0l-.76-.18a15.32,15.32,0,0,0-6.71.24,17.21,17.21,0,0,0-3.86,1.48A19,19,0,0,0,28.59,23a22.67,22.67,0,0,0-2.68,3,16.76,16.76,0,0,1,3.76-10,17.74,17.74,0,0,1,2.38-2.39l.11-.09h0l.1-.07.09-.06.1-.07.17-.12.09-.06L33,13h0A17.6,17.6,0,0,1,42.22,10.65ZM46,25V56.42H2v-44H30.35l-.2.18-.35.32-.37.35-.32.33-.34.36-.3.33-.31.37-.27.33-.29.37-.25.33-.26.37-.23.33-.24.38-.2.33-.22.38-.18.33-.2.38-.16.32-.18.38-.14.32-.16.38-.12.31-.14.38-.1.3L24.7,21l-.09.3-.1.37-.08.29-.09.37-.06.27-.07.37v.26l-.06.36v5.19h0v.34l.5,2.57L26,29.4c4.37-7.4,10-9.06,13.54-9.3a13.32,13.32,0,0,1,2.47.06V29h0Z" transform="translate(0.01)"/></svg>