<svg id="Capa_1" data-name="Capa 1" xmlns="http://www.w3.org/2000/svg" viewBox="0 0 612 510.81"><defs><style>.cls-1{fill:#fff;}</style></defs><title>web</title><path class="cls-1" d="M578.77,51.49v-.9H32.93v.9C15.27,52.7,2.1,66.75,0,83.81V442.53a35.2,35.2,0,0,0,4.79,17.95c6.89,12.14,17.07,18.27,31.14,18.27h197v49.7H195.52a16.48,16.48,0,0,0,0,33H416.18a16.48,16.48,0,1,0,0-33H378.76v-49.7h197c14.08,0,24.34-6.13,31.14-18.27A36.15,36.15,0,0,0,612,442.53V83.81C609.91,66.75,595.83,52.7,578.77,51.49Zm0,35.32V442.54c0,2.11-.9,3-3,3H35.93c-2.1,0-3-.89-3-3V83.81H578.77v3Z" transform="translate(0 -50.59)"/><path class="cls-1" d="M384.87,261.72a7.61,7.61,0,0,0-3.44-7.51L238.77,161.95a7.41,7.41,0,0,0-7.76-.25,7.81,7.81,0,0,0-3.94,6.74V331.59a7.84,7.84,0,0,0,4.2,6.87,7.63,7.63,0,0,0,8-.76l40.47-30.29,37,58a7.62,7.62,0,0,0,6.49,3.56,8.16,8.16,0,0,0,3.82-1l37.8-21.89a7.69,7.69,0,0,0,3.56-4.84,7.26,7.26,0,0,0-1-5.85l-34.49-54.34L379.52,268A7.71,7.71,0,0,0,384.87,261.72Zm-66,7.38a7.93,7.93,0,0,0-5.09,4.58,7.7,7.7,0,0,0,.64,6.87L350,336.8l-24.56,14.25-37.29-58.79a7.59,7.59,0,0,0-5.09-3.44,5.23,5.23,0,0,0-1.4-.13,7.62,7.62,0,0,0-4.58,1.53l-34.87,26.09V182.44L359,257.9Z" transform="translate(0 -50.59)"/></svg>