<svg id="Capa_1" data-name="Capa 1" xmlns="http://www.w3.org/2000/svg" viewBox="0 0 612 510.86"><defs><style>.cls-1{fill:#a161b1;}</style></defs><title>webviolet</title><path class="cls-1" d="M578.77.9V0H32.93V.9C15.27,2.11,2.1,16.16,0,33.22V391.94a35.2,35.2,0,0,0,4.79,18c6.89,12.14,17.07,18.27,31.14,18.27h197v49.7H195.52a16.5,16.5,0,0,0,0,33H416.18a16.5,16.5,0,0,0,0-33H378.76v-49.7h197c14.08,0,24.34-6.13,31.14-18.27a36.15,36.15,0,0,0,5.1-18V33.22C609.91,16.16,595.83,2.11,578.77.9Zm0,35.32V392c0,2.11-.9,3-3,3H35.93c-2.1,0-3-.89-3-3V33.22H578.77Z" transform="translate(0)"/><path class="cls-1" d="M384.87,211.13a7.61,7.61,0,0,0-3.44-7.51L238.77,111.36a7.41,7.41,0,0,0-7.76-.25,7.81,7.81,0,0,0-3.94,6.74V281a7.84,7.84,0,0,0,4.2,6.87,7.63,7.63,0,0,0,8-.76l40.47-30.29,37,58a7.62,7.62,0,0,0,6.49,3.56,8.16,8.16,0,0,0,3.82-1l37.8-21.89a7.69,7.69,0,0,0,3.56-4.84,7.26,7.26,0,0,0-1-5.85l-34.49-54.34,46.6-13A7.71,7.71,0,0,0,384.87,211.13Zm-66,7.38a7.93,7.93,0,0,0-5.09,4.58,7.7,7.7,0,0,0,.64,6.87L350,286.21l-24.56,14.25-37.29-58.79a7.59,7.59,0,0,0-5.09-3.44,5.23,5.23,0,0,0-1.4-.13,7.62,7.62,0,0,0-4.58,1.53l-34.87,26.09V131.85L359,207.31Z" transform="translate(0)"/></svg>