<svg xmlns="http://www.w3.org/2000/svg" width="44" height="44" viewBox="0 0 44 44">
  <g id="icone-notes" transform="translate(-819 -683)">
    <rect id="Rectangle_2172" data-name="Rectangle 2172" width="44" height="44" transform="translate(819 683)" fill="#fff"/>
    <g id="icone" transform="translate(0 -3.168)">
      <path id="Tracé_240" data-name="Tracé 240" d="M-434.891-3194.155v4.751h3.885v-4.751" transform="translate(1276.004 3893)" fill="none" stroke="#b03661" stroke-width="2"/>
      <g id="Tracé_239" data-name="Tracé 239" transform="translate(833 697.168)" fill="none" stroke-linecap="round" stroke-linejoin="round">
        <path d="M1.545,0H14.681a1.545,1.545,0,0,1,1.545,1.545V22.408L8.141,14.681,0,22.408V1.545A1.545,1.545,0,0,1,1.545,0Z" stroke="none"/>
        <path d="M 2.000004768371582 2.000001907348633 L 2.000004768371582 17.75263595581055 L 6.764615058898926 13.23058128356934 C 7.538304328918457 12.49628353118896 8.752103805541992 12.49838256835938 9.523244857788086 13.23536109924316 L 14.22662448883057 17.73034286499023 L 14.22662448883057 2.000001907348633 L 2.000004768371582 2.000001907348633 M 1.545394897460938 1.9073486328125e-06 L 14.68123435974121 1.9073486328125e-06 C 15.53473472595215 1.9073486328125e-06 16.22662544250488 0.6918907165527344 16.22662544250488 1.545391082763672 L 16.22662544250488 22.40820121765137 L 8.141424179077148 14.68124198913574 L 3.814697265625e-06 22.40820121765137 L 3.814697265625e-06 1.545391082763672 C 3.814697265625e-06 0.6918907165527344 0.69189453125 1.9073486328125e-06 1.545394897460938 1.9073486328125e-06 Z" stroke="none" fill="#287380"/>
      </g>
    </g>
  </g>
</svg>
