<svg xmlns="http://www.w3.org/2000/svg" width="44" height="44" viewBox="0 0 44 44">
  <g id="icone-actu" transform="translate(12.516 14.186)">
    <rect id="Rectangle_2171" data-name="Rectangle 2171" width="44" height="44" transform="translate(-12.516 -14.186)" fill="#fff"/>
    <g id="icone" transform="translate(-0.516 -2.186)">
      <path id="Tracé_245" data-name="Tracé 245" d="M23.357,22.608V29.2a3.386,3.386,0,0,0,0-6.593Zm0,5.343V23.858A2.139,2.139,0,0,1,24.778,25.9,2.178,2.178,0,0,1,23.357,27.95Z" transform="translate(-6.164 -16.924)" fill="#b03661" stroke="#b03661" stroke-width="0.5"/>
      <path id="Tracé_241" data-name="Tracé 241" d="M19.693,18.031a2.12,2.12,0,0,0-4.234-.171,12.329,12.329,0,0,1-8.7,2.956H4.66a2.159,2.159,0,0,0-2.16,2.16v3.78a2.159,2.159,0,0,0,2.16,2.16h.767l1.023,5.4a1.186,1.186,0,0,0,1.165.966H9.974a1.254,1.254,0,0,0,.909-.426,1.205,1.205,0,0,0,.256-.966l-.881-4.6a11.87,11.87,0,0,1,5.2,2.615,2.11,2.11,0,0,0,2.1,1.961,2.147,2.147,0,0,0,2.131-2.131Zm-16,8.724v-3.78a.946.946,0,0,1,.938-.938h2.1a13.7,13.7,0,0,0,8.7-2.643v10.97a13.591,13.591,0,0,0-8.7-2.643h-2.1A.952.952,0,0,1,3.694,26.756Zm6.252,7.332-2.3.028-.995-5.172h.114a17.8,17.8,0,0,1,2.217.142Zm8.526-2.359a.916.916,0,0,1-.909.909.935.935,0,0,1-.909-.909v-13.7a.916.916,0,0,1,.909-.909.935.935,0,0,1,.909.909Z" transform="translate(-2.5 -15.9)" fill="#287380" stroke="#287380" stroke-width="0.5"/>
    </g>
  </g>
</svg>
