<svg id="icone-mail-repondre" xmlns="http://www.w3.org/2000/svg" width="26" height="26" viewBox="0 0 26 26">
  <g id="Icon_material-reply" data-name="Icon material-reply" transform="translate(0.871 -1.849)" fill="none" stroke-linecap="round" stroke-linejoin="round">
    <path d="M10.01,11.534V8.5L5.5,13.01l4.51,4.51v-3.11c3.792,0,6.447,2.013,8.343,4.668C17.594,15.285,15.319,12.292,10.01,11.534Z" stroke="none"/>
    <path d="M 10.00955295562744 8.499996185302734 L 5.500001907348633 13.00955677032471 L 10.00955295562744 17.51910781860352 L 10.00955295562744 14.4093770980835 C 13.80191230773926 14.4093770980835 16.45657348632812 16.42267608642578 18.35274314880371 19.07733535766602 C 17.59427261352539 15.28497695922852 15.31886291503906 12.29235649108887 10.00955295562744 11.53388595581055 L 10.00955295562744 8.499996185302734 M 10.00999546051025 6.49993896484375 C 10.26764678955078 6.49993896484375 10.52746295928955 6.549736022949219 10.77492237091064 6.652236938476562 C 11.52227210998535 6.961795806884766 12.00955295562744 7.691076278686523 12.00955295562744 8.499996185302734 L 12.00955295562744 9.890630722045898 C 14.15771293640137 10.43592262268066 15.93109512329102 11.39349174499512 17.29640197753906 12.74818706512451 C 18.81143188476562 14.25143718719482 19.82666206359863 16.2489070892334 20.31390190124512 18.68510627746582 C 20.49880218505859 19.60962677001953 20.0129222869873 20.53771591186523 19.14779281616211 20.91251754760742 C 18.28267288208008 21.28731727600098 17.27327156066895 21.00701713562012 16.72527313232422 20.23980712890625 C 15.36459922790527 18.3348503112793 13.80947017669678 17.15335655212402 12.00955295562744 16.66651153564453 L 12.00955295562744 17.51910781860352 C 12.00955295562744 18.32802581787109 11.52227210998535 19.05730628967285 10.77492237091064 19.36686706542969 C 10.02756977081299 19.67642593383789 9.167332649230957 19.50531578063965 8.595342636108398 18.93331718444824 L 4.085792541503906 14.42376708984375 C 3.304742813110352 13.64272689819336 3.304742813110352 12.37639713287354 4.085783004760742 11.59534645080566 L 8.595332145690918 7.085786819458008 C 8.977933883666992 6.703184127807617 9.489517211914062 6.49993896484375 10.00999546051025 6.49993896484375 Z" stroke="none" fill="#7ed7c2"/>
  </g>
  <g id="Ellipse_59" data-name="Ellipse 59" fill="none" stroke="#7ed7c2" stroke-width="2">
    <circle cx="13" cy="13" r="13" stroke="none"/>
    <circle cx="13" cy="13" r="12" fill="none"/>
  </g>
</svg>
