<svg id="icone-pathologie" xmlns="http://www.w3.org/2000/svg" width="15.845" height="20.326" viewBox="0 0 15.845 20.326">
  <path id="Tracé_227" data-name="Tracé 227" d="M27.909,16.386H26.578v2.957a3.247,3.247,0,0,1-.965,2.317,3.283,3.283,0,0,1-2.33.96h0a3.282,3.282,0,0,1-2.33-.96,3.247,3.247,0,0,1-.966-2.318V14.011A5.01,5.01,0,0,0,24.137,9.1V3.95H20.985V5.605h1.487V9.1a3.329,3.329,0,0,1-6.658,0v-3.5H17.3V3.95H14.15V9.1a5.006,5.006,0,0,0,4.172,4.909v5.331a4.886,4.886,0,0,0,1.452,3.488,4.942,4.942,0,0,0,3.507,1.445h0a4.952,4.952,0,0,0,4.96-4.933V16.386Z" transform="translate(-14.15 -3.95)" fill="#287380"/>
  <path id="Tracé_228" data-name="Tracé 228" d="M66.844,39.223a2.545,2.545,0,1,0-3.129,3.129l1.331.006.021-.006A2.548,2.548,0,0,0,66.844,39.223Zm-1.514.675a.961.961,0,1,1-.961-.961A.962.962,0,0,1,65.331,39.9Z" transform="translate(-51.09 -29.872)" fill="#b03661"/>
</svg>
