<svg xmlns="http://www.w3.org/2000/svg" width="44" height="44" viewBox="0 0 44 44">
  <g id="icone-planning" transform="translate(-65 -267)">
    <rect id="Rectangle_2051" data-name="Rectangle 2051" width="44" height="44" transform="translate(65 267)" fill="#fff"/>
    <g id="Groupe_225" data-name="Groupe 225" transform="translate(47.644 280.547)">
      <g id="Icon_feather-calendar" data-name="Icon feather-calendar" transform="translate(29.356 -1.547)">
        <path id="Tracé_29" data-name="Tracé 29" d="M4.5,15H23.822" transform="translate(-4.5 -7.137)" fill="none" stroke="#287380" stroke-linecap="round" stroke-linejoin="round" stroke-width="2"/>
        <path id="Tracé_26" data-name="Tracé 26" d="M6.647,6H21.675a2.031,2.031,0,0,1,2.147,1.89V21.116a2.031,2.031,0,0,1-2.147,1.89H6.647A2.031,2.031,0,0,1,4.5,21.116V7.89A2.031,2.031,0,0,1,6.647,6Z" transform="translate(-4.5 -3.853)" fill="none" stroke="#287380" stroke-linecap="round" stroke-linejoin="round" stroke-width="2"/>
        <path id="Tracé_27" data-name="Tracé 27" d="M24,3V7.294" transform="translate(-10.045 -3)" fill="none" stroke="#b03661" stroke-linecap="round" stroke-linejoin="round" stroke-width="2"/>
        <path id="Tracé_28" data-name="Tracé 28" d="M12,3V7.294" transform="translate(-6.633 -3)" fill="none" stroke="#b03661" stroke-linecap="round" stroke-linejoin="round" stroke-width="2"/>
      </g>
    </g>
  </g>
</svg>
