<svg xmlns="http://www.w3.org/2000/svg" width="44" height="44" viewBox="0 0 44 44">
  <g id="icone-passeport-sante" transform="translate(-65 -267)">
    <rect id="Rectangle_2051" data-name="Rectangle 2051" width="44" height="44" transform="translate(65 267)" fill="#fff"/>
    <g id="Groupe_471" data-name="Groupe 471" transform="translate(62.85 272.05)">
      <path id="Tracé_227" data-name="Tracé 227" d="M31.545,19.671H29.861V23.41a4.1,4.1,0,0,1-1.22,2.93A4.15,4.15,0,0,1,25.7,27.553h0a4.149,4.149,0,0,1-2.946-1.213,4.105,4.105,0,0,1-1.221-2.93v-6.74a6.333,6.333,0,0,0,5.246-6.2V3.95H22.791V6.042h1.88v4.422a4.208,4.208,0,0,1-8.417,0V6.042h1.88V3.95H14.15v6.514a6.329,6.329,0,0,0,5.275,6.206v6.74a6.177,6.177,0,0,0,1.836,4.409,6.247,6.247,0,0,0,4.434,1.827h0a6.261,6.261,0,0,0,6.27-6.237V19.671Z" transform="translate(0 0)" fill="#287380"/>
      <path id="Tracé_228" data-name="Tracé 228" d="M68.165,39.717a3.217,3.217,0,1,0-3.956,3.956l1.682.007.026-.007A3.221,3.221,0,0,0,68.165,39.717Zm-1.914.853a1.215,1.215,0,1,1-1.215-1.215A1.216,1.216,0,0,1,66.252,40.57Z" transform="translate(-34.099 -23.945)" fill="#b03661"/>
    </g>
  </g>
</svg>
