<svg xmlns="http://www.w3.org/2000/svg" width="44" height="44" viewBox="0 0 44 44">
  <g id="icone-coach" transform="translate(-65 -267)">
    <rect id="Rectangle_2051" data-name="Rectangle 2051" width="44" height="44" transform="translate(65 267)" fill="#fff"/>
    <g id="Groupe_359" data-name="Groupe 359" transform="translate(-995.108 -409.935)">
      <g id="Tracé_169" data-name="Tracé 169" transform="translate(1073.108 686.391)" fill="none">
        <path d="M3.664,0H15.2A3.676,3.676,0,0,1,18.86,3.687V20.252L15.2,23.939H3.664A3.676,3.676,0,0,1,0,20.252V3.687A3.676,3.676,0,0,1,3.664,0Z" stroke="none"/>
        <path d="M 3.66444206237793 1.999996185302734 C 2.746662139892578 1.999996185302734 2.000001907348633 2.756927490234375 2.000001907348633 3.687326431274414 L 2.000001907348633 20.25211715698242 C 2.000001907348633 21.18251609802246 2.746662139892578 21.93945693969727 3.66444206237793 21.93945693969727 L 14.36333847045898 21.93945693969727 L 16.85986137390137 19.42733764648438 L 16.85986137390137 3.687326431274414 C 16.85986137390137 2.756927490234375 16.11319160461426 1.999996185302734 15.19541168212891 1.999996185302734 L 3.66444206237793 1.999996185302734 M 3.66444206237793 -3.814697265625e-06 L 15.19541168212891 -3.814697265625e-06 C 17.21923065185547 -3.814697265625e-06 18.85986137390137 1.650876998901367 18.85986137390137 3.687326431274414 L 18.85986137390137 20.25211715698242 L 15.19541168212891 23.93945693969727 L 3.66444206237793 23.93945693969727 C 1.640630722045898 23.93945693969727 1.9073486328125e-06 22.28857612609863 1.9073486328125e-06 20.25211715698242 L 1.9073486328125e-06 3.687326431274414 C 1.9073486328125e-06 1.650876998901367 1.640630722045898 -3.814697265625e-06 3.66444206237793 -3.814697265625e-06 Z" stroke="none" fill="#287380"/>
      </g>
      <g id="Groupe_217" data-name="Groupe 217" transform="translate(1077.127 692.627)">
        <g id="Groupe_218" data-name="Groupe 218" transform="translate(0 5.319)">
          <path id="Tracé_67" data-name="Tracé 67" d="M0,0H4.344" transform="translate(5.626 1.731)" fill="none" stroke="#b03661" stroke-linecap="round" stroke-width="1.5"/>
          <path id="Tracé_70" data-name="Tracé 70" d="M1.6.613l.943,1.218L4.628-.3" transform="translate(-1.599 0.303)" fill="none" stroke="#b03661" stroke-linecap="round" stroke-linejoin="round" stroke-width="1.5"/>
        </g>
        <g id="Groupe_363" data-name="Groupe 363" transform="translate(0 -0.291)">
          <path id="Tracé_67-2" data-name="Tracé 67" d="M0,0H4.344" transform="translate(5.626 1.731)" fill="none" stroke="#b03661" stroke-linecap="round" stroke-width="1.5"/>
          <path id="Tracé_70-2" data-name="Tracé 70" d="M1.6.613l.943,1.218L4.628-.3" transform="translate(-1.599 0.303)" fill="none" stroke="#b03661" stroke-linecap="round" stroke-linejoin="round" stroke-width="1.5"/>
        </g>
      </g>
      <path id="Tracé_170" data-name="Tracé 170" d="M4212.215,6159.042v-5.612h5.454" transform="translate(-3125.614 -5449.205)" fill="#287380"/>
    </g>
  </g>
</svg>
